<svg width="1048" height="270" viewBox="0 0 1048 270" fill="none" xmlns="http://www.w3.org/2000/svg">
<rect x="0.5" y="0.5" width="1047" height="270"/>
<path d="M275 11.704L283 12.32L295 16.016L303 20.328L314 29.568L323 41.272L329 52.36L334 62.832V64.064L346 65.296L363 68.376L383 73.92L399 80.08L409 85.008L422 91.784L433 99.792L442 107.8L450 116.424L457 126.28L462 136.136L465 144.76L467 152.768L468 170.632L467 251.944L466 252.56H402V171.248L401 156.464L397 144.144L394 139.832L383 127.512L371 119.504L366 117.04L361 113.96L351 110.264L334 105.952L325 105.336L323 104.104H305L300 103.488L285 105.336L272 108.416L261 112.112L253 115.808L233 128.128L225 137.984L221 143.528L219 147.84L218 154V170.016L220 171.248L221 177.408L225 182.952L231 189.728L239 196.504L250 203.28L265 209.44L277 213.136L288 214.984L300 216.216L305 216.832H319L340 213.752L353 208.824L358 209.44L366 217.448L375 225.456L383 232.232L387 236.544L390 240.24V243.32L382 246.4L364 251.328L347 254.408L323 256.872H293L270 254.408L254 251.328L238 247.016L222 241.472L206 234.08L194 227.304L185 221.144L171 208.208L161 195.272L155 183.568L152 174.328L151 160.776L152 146.608L156 134.288L161 125.048L171 112.112L181 102.256L191 95.48L198 90.552L211 83.16L224 77.616L235 73.304L234 70.224L225 64.064L217 60.368L209 58.52L202 65.296L192 68.376H184L174 65.912L166 60.984L162 56.056L161 53.592V48.664L165 42.504L170 39.424L176 37.576H192L204 40.04L215 43.736L226 48.664L234 53.592L239 56.056L246 60.984L254 67.144L263 66.528L280 64.064L300 62.832H314L309 51.128L302 42.504L299 40.04L293 40.656L287 43.12L277 44.352L267 41.888L259 36.344L255 30.184V25.256L259 17.864L266 13.552L275 11.704ZM653 62.832H673L695 64.68L713 67.76L734 73.304L752 80.08L766 87.472L774 91.784L785 100.408L792 106.568L798 112.728L805 122.584L810 131.824L814 144.144L815 150.304V251.944L814 252.56H755L751 251.944L750 250.712L749 150.304L746 141.064L740 131.824L733 124.432L721 116.424L710 111.496L694 106.568L681 104.104L676 103.488H651L636 105.952L624 109.032L613 113.344L603 118.888L594 125.048L586 133.672L581 142.296L578 154L577 252.56L522 253.176L514 252.56L512 250.096V160.16L513 147.224L516 135.52L522 123.2L530 112.112L540 102.256L547 96.712L556 90.552L565 85.008L577 79.464L590 74.536L611 68.376L632 64.68L653 62.832ZM853 0H917L918 0.616V66.528H1007L1010 67.144L1011 68.376V105.336L1010 105.952L919 106.568V166.936L923 178.024L929 186.648L936 193.424L945 200.2L955 205.128L971 211.288L989 214.984L1008 217.448L1011 219.296V256.256L1010 256.872L993 256.256L974 254.408L954 250.712L937 245.784L922 240.24L910 234.696L897 227.304L886 219.912L874 208.824L866 198.968L860 189.112L856 179.872L853 167.552V0Z" fill="#8600EB"/>
<path d="M5 99.792H67L86 100.408L98 103.488L107 108.416L113 114.576L115 120.736V127.512L113 133.672L107 140.448L98 145.376L89 147.84L80 149.072H68L58 147.224L50 143.528L42 137.984L38 133.056L36 128.128V120.12L39 116.424L41 115.808H51L55 116.424V127.512L59 132.44L65 135.52L73 137.368H80L89 134.904L94 131.824L97 126.896V121.968L94 117.04L87 113.344L76 111.496H51L2 110.88V101.024L5 99.792ZM67 0H85L93 1.848L101 4.928L108 9.24L113 15.4L115 20.944V27.104L113 32.648L109 37.576L101 43.12L93 46.2L84 48.048H67L54 44.968L46 40.656L40 34.496L37 29.568L36 21.56L39 14.168L45 8.008L54 3.08L63 0.616L67 0ZM71 10.472L63 12.936L56 17.248L53 21.56V25.872L57 31.416L65 35.728L73 37.576L82 36.96L91 33.88L95 30.8L98 25.256L97 19.712L92 14.784L87 12.32L80 10.472H71Z" fill="#8600eb"/>
<path d="M331 126.563H349L360 130.259L369 135.187L375 141.347V156.747L370 161.675L360 167.835L354 169.683L348 170.915L347 171.531H333L321 168.451L311 162.907L307 160.443L304 155.515V146.891L307 147.507L311 151.819L319 154.899L323 155.515L333 152.435L337 149.971L339 146.891L338 142.579L333 137.651L328 135.803H317L309 138.883L306 138.267L317 130.875L325 127.795L331 126.563Z" fill="#8600EB"/>
<path d="M64 148.268H77L92 150.116L102 153.196L110 158.74L114 163.668L115 167.364V174.756L113 180.3L107 186.46L100 190.156L91 192.62L86 193.236H39L38 191.388V182.764L40 182.148L84 181.532L91 179.684L95 177.22L97 173.524V169.212L93 164.284L88 161.82L86 161.204L39 160.588L38 159.972V151.348L39 150.116L43 149.5L64 148.268ZM39 198.164H54V206.172L90 205.556L95 203.708L99 198.164H114V203.092L107 211.716L100 215.412L92 217.26L80 217.876H17L16 217.26V206.788L36 206.172L38 198.78L39 198.164ZM42 224.652L47 225.268L54 229.58L53 236.356H61L70 232.66L81 227.116L90 224.652H98L106 227.116L113 232.044L115 235.74V241.9L112 248.06L109 250.524L104 249.908L97 246.212L96 238.82L95 236.972L88 238.204L74 244.98L65 248.676L60 249.908H52L45 247.444L39 243.132L36 236.356V232.044L40 226.5L42 224.652ZM40 76.8124H113L114 77.4284V87.2844L106 87.9004H39L38 87.2844V79.8924L40 76.8124ZM12 74.9644L18 75.5804L23 78.0444L25 80.5084V84.8204L21 88.5164L20 89.1324H9L3 86.0524L2 84.8204V79.2764L6 76.1964L12 74.9644ZM327 135.948L332 137.796L334 139.028V142.108L330 144.572L325 143.956L321 140.876L324 137.796L327 135.948Z" fill="#8600eb"/>
</svg>
