<svg xmlns="http://www.w3.org/2000/svg" xmlns:xlink="http://www.w3.org/1999/xlink" viewBox="0 0 119.63 84.37"><defs><style>.cls-1{isolation:isolate;}.cls-2{opacity:0.1;}.cls-3{fill:#2c50ab;}.cls-4{fill:#27356b;}.cls-5{fill:#e8eaf1;}.cls-6{fill:#877f9f;}.cls-7{fill:#fff;}.cls-8{fill:#473f65;}.cls-9{fill:#656565;}.cls-16,.cls-9{mix-blend-mode:soft-light;}.cls-10{fill:#5f698f;}.cls-11{fill:#f4af9f;}.cls-12{fill:#e1708b;}.cls-13{opacity:0.72;mix-blend-mode:overlay;}.cls-14{fill:url(#Áåçûìÿííûé_ãðàäèåíò_20);}.cls-15{fill:url(#Áåçûìÿííûé_ãðàäèåíò_20-2);}.cls-16{opacity:0.5;}.cls-17{fill:url(#Áåçûìÿííûé_ãðàäèåíò_20-4);}.cls-18{fill:url(#Áåçûìÿííûé_ãðàäèåíò_19);}.cls-19{fill:url(#Áåçûìÿííûé_ãðàäèåíò_19-2);}.cls-20{fill:url(#Áåçûìÿííûé_ãðàäèåíò_19-3);}.cls-21{fill:#dadeed;}.cls-22{fill:url(#Áåçûìÿííûé_ãðàäèåíò_20-5);}.cls-23{fill:url(#Áåçûìÿííûé_ãðàäèåíò_20-6);}.cls-24{fill:url(#Áåçûìÿííûé_ãðàäèåíò_20-8);}.cls-25{fill:url(#Áåçûìÿííûé_ãðàäèåíò_20-10);}.cls-26{fill:url(#Áåçûìÿííûé_ãðàäèåíò_20-12);}.cls-27{fill:url(#Áåçûìÿííûé_ãðàäèåíò_20-13);}.cls-28{fill:#e887a3;}.cls-29{fill:#fcfbfc;}</style><linearGradient id="Áåçûìÿííûé_ãðàäèåíò_20" x1="58.76" y1="78.06" x2="70.71" y2="78.06" gradientUnits="userSpaceOnUse"><stop offset="0" stop-color="gray"/><stop offset="1" stop-color="#d6d6d6"/></linearGradient><linearGradient id="Áåçûìÿííûé_ãðàäèåíò_20-2" x1="58.76" y1="77.22" x2="70.71" y2="77.22" xlink:href="#Áåçûìÿííûé_ãðàäèåíò_20"/><linearGradient id="Áåçûìÿííûé_ãðàäèåíò_20-4" x1="30.19" y1="79.18" x2="60.74" y2="79.18" xlink:href="#Áåçûìÿííûé_ãðàäèåíò_20"/><linearGradient id="Áåçûìÿííûé_ãðàäèåíò_19" x1="32.61" y1="76.26" x2="38.53" y2="76.26" gradientUnits="userSpaceOnUse"><stop offset="0" stop-color="#d6d6d6"/><stop offset="1" stop-color="gray"/></linearGradient><linearGradient id="Áåçûìÿííûé_ãðàäèåíò_19-2" x1="32.61" y1="76.26" x2="38.53" y2="76.26" xlink:href="#Áåçûìÿííûé_ãðàäèåíò_19"/><linearGradient id="Áåçûìÿííûé_ãðàäèåíò_19-3" x1="5439.68" y1="76.26" x2="5445.59" y2="76.26" gradientTransform="matrix(-1, 0, 0, 1, 5524.42, 0)" xlink:href="#Áåçûìÿííûé_ãðàäèåíò_19"/><linearGradient id="Áåçûìÿííûé_ãðàäèåíò_20-5" x1="53.75" y1="40.04" x2="63.87" y2="40.04" xlink:href="#Áåçûìÿííûé_ãðàäèåíò_20"/><linearGradient id="Áåçûìÿííûé_ãðàäèåíò_20-6" x1="53.75" y1="39.56" x2="63.87" y2="39.56" xlink:href="#Áåçûìÿííûé_ãðàäèåíò_20"/><linearGradient id="Áåçûìÿííûé_ãðàäèåíò_20-8" x1="53.75" y1="33.24" x2="63.87" y2="33.24" xlink:href="#Áåçûìÿííûé_ãðàäèåíò_20"/><linearGradient id="Áåçûìÿííûé_ãðàäèåíò_20-10" x1="53.75" y1="33.24" x2="63.87" y2="33.24" xlink:href="#Áåçûìÿííûé_ãðàäèåíò_20"/><linearGradient id="Áåçûìÿííûé_ãðàäèåíò_20-12" x1="53.75" y1="32.9" x2="63.87" y2="32.9" xlink:href="#Áåçûìÿííûé_ãðàäèåíò_20"/><linearGradient id="Áåçûìÿííûé_ãðàäèåíò_20-13" x1="53.75" y1="32.59" x2="63.87" y2="32.59" xlink:href="#Áåçûìÿííûé_ãðàäèåíò_20"/></defs><title>offer7</title><g class="cls-1"><g id="Layer_2" data-name="Layer 2"><g id="Layer_1-2" data-name="Layer 1"><g class="cls-2"><path class="cls-3" d="M30,79.7c6.32-2.33,8.11-11,5.47-17.21S27.27,52,22.1,47.64s-10.4-9.35-11.75-16C8.46,22.44,15.48,12.94,24.43,10s19-.46,27.06,4.43c7.08,4.3,13.21,10.44,21.13,12.87,9.83,3,21.48,0,30,5.81a16.32,16.32,0,0,1,4.62,21.56A31.94,31.94,0,0,1,96.16,65.07a52.18,52.18,0,0,1-13.41,5.21C78,71.48,73.11,72,68.46,73.64c-.59.21-1.17.43-1.74.67-11.91,5-24.6,11.71-36.57,6.83Z"/></g><g class="cls-2"><path class="cls-3" d="M19.65,48.29c4.89,4.46,9.87,9,13,14.89,1,1.88,1.8,4.05,1.26,6.11S30.93,73,29,72s-2-3.86-2.46-6.12c-1-5.57-6.07-9.34-9.5-13.84a5.57,5.57,0,0,1-1.17-2.24,2.19,2.19,0,0,1,.81-2.26,2.24,2.24,0,0,1,2.5.3A6.56,6.56,0,0,1,20.77,50Z"/></g><g class="cls-2"><path class="cls-3" d="M82.88,72.9a15.94,15.94,0,0,1,7.42-2.7c1.05-.1,2.37.06,2.76,1A1.8,1.8,0,0,1,92.67,73a4.94,4.94,0,0,1-1.54,1.1,44.55,44.55,0,0,1-5.68,2.51,3.25,3.25,0,0,1-2.07.25A2.28,2.28,0,0,1,82,74.94a6.69,6.69,0,0,1,.32-2.48Z"/></g><path class="cls-4" d="M69.23,66.26Z"/><path class="cls-5" d="M69.68,66.85h0l.16.21Z"/><path class="cls-5" d="M70,67.28l-.16-.22Z"/><path class="cls-5" d="M70.05,67.35,70,67.28Z"/><path class="cls-5" d="M70.16,67.5l-.08-.1Z"/><path class="cls-5" d="M70.08,67.4l0,0Z"/><path class="cls-6" d="M87.6,50.22c-5.33,0-9.31-2.74-11.84-8.17a1.83,1.83,0,0,1,0-1.34c.1-.35.13-.49,0-.66C73.38,36,76,33,78.49,30c2.68-3.17,5.2-6.17,3-10.56l-.06-.21c-.56-7.48-5.2-7.75-5.4-7.76h-.27l-.16-.22a34.87,34.87,0,0,0-6-6.1c-3.07-2.38-9.52-5.77-18.29-1.7-1.53.71-2.62,1.22-3.4,1.56-5.43,3.16-5.19,7.71-5,12.12.2,3.93.41,8-3.62,10.52a30.12,30.12,0,0,1-5.74,3,27.53,27.53,0,0,0-5.24,2.73c-2,1.26-4.73,1.33-6.69,1.38-.59,0-1.13,0-1.58.07-6,.87-8.15-1.18-10.24-3.17C8.1,30,6.49,28.51,2.64,28.51V27.39c4.3,0,6.15,1.76,7.94,3.46,2,1.88,3.85,3.66,9.33,2.87.5,0,1.06-.06,1.68-.08,1.94,0,4.35-.11,6.13-1.21a28.77,28.77,0,0,1,5.42-2.82,29.26,29.26,0,0,0,5.56-2.93c3.48-2.17,3.3-5.58,3.1-9.51s-.45-8.62,3.84-12c0-.17,0-.3.42-.54v0l.14-.06c.41-.23,1.08-.55,2.15-1.06l.27-.13.5-.24,0,.07,1.65-.76C60.12-1.92,67,1.69,70.26,4.23a35.77,35.77,0,0,1,6.1,6.13c1.18.18,5.59,1.33,6.19,8.65C85,24,82,27.57,79.35,30.7c-2.47,2.92-4.59,5.45-2.6,8.78A1.8,1.8,0,0,1,76.84,41c-.08.27-.12.44-.06.56,2.47,5.3,6.42,7.83,11.77,7.49a16.36,16.36,0,0,0,6.6-1.58,16.47,16.47,0,0,1,2.34-.86c1.51-.47,2.93-.92,3.42-2,2.9-6.33,6.75-6.58,9.85-6.78,2.38-.15,4.09-.26,5.12-2.73l1,.43c-1.3,3.12-3.73,3.27-6.09,3.42-3.09.2-6.29.4-8.9,6.12-.7,1.53-2.43,2.07-4.11,2.6a15.66,15.66,0,0,0-2.18.8,17.58,17.58,0,0,1-7,1.69C88.27,50.21,87.93,50.22,87.6,50.22Z"/><circle class="cls-6" cx="76.02" cy="10.93" r="10.57"/><circle class="cls-6" cx="29.23" cy="29.37" r="10.8"/><circle class="cls-7" cx="29.23" cy="29.37" r="9.41"/><circle class="cls-6" cx="95.43" cy="46.61" r="9.16"/><circle class="cls-7" cx="95.43" cy="46.61" r="7.93"/><circle class="cls-6" cx="48.86" cy="3.83" r="3.83"/><circle class="cls-6" cx="76.27" cy="39.56" r="3.83"/><circle class="cls-6" cx="116.99" cy="35.17" r="2.64"/><circle class="cls-6" cx="2.64" cy="27.95" r="2.64"/><path class="cls-8" d="M84.94,76C80.94,71.67,63,63.95,63,63.95l-4.67.77-4.67-.77S32.66,73,31.08,77l1.26,5.37s19.26,1.15,26.07,1c2.27-.06,19.29.78,22,.8,3.5,0,5.81-.5,6.21-3.78C86.82,79.14,87,77.2,84.94,76Z"/><path class="cls-9" d="M56.71,77S68,74.6,75.14,74.67c0,0-11.16,1.22-18.65,4Z"/><path class="cls-10" d="M66.43,79.64s7.64,2.14,8,1.4c.76-1.47-6.93-5.54-9.1-6.47-.9-.39-4.41.41-4.48,1.94C60.8,78.33,66.43,79.64,66.43,79.64Z"/><path class="cls-11" d="M59.66,78.56s.58-.63,2.18-.2,8.65,2.23,8.87,1.8-5.56-4.1-6.82-4.22a25.75,25.75,0,0,0-5.12.11C58.77,76.24,59.66,78.56,59.66,78.56Z"/><path class="cls-12" d="M63.88,75.95a25.75,25.75,0,0,0-5.12.11c0,.19.9,2.5.9,2.5a1.85,1.85,0,0,1,1.6-.32,2.73,2.73,0,0,1,0-1.59,19.42,19.42,0,0,1,5.53.63A10.9,10.9,0,0,0,63.88,75.95Z"/><g class="cls-13"><path class="cls-14" d="M59.66,78.56s.58-.63,2.18-.2,8.65,2.23,8.87,1.8-5.56-4.1-6.82-4.22a25.75,25.75,0,0,0-5.12.11C58.77,76.24,59.66,78.56,59.66,78.56Z"/><path class="cls-15" d="M63.88,75.95a25.75,25.75,0,0,0-5.12.11c0,.19.9,2.5.9,2.5a1.85,1.85,0,0,1,1.6-.32,2.73,2.73,0,0,1,0-1.59,19.42,19.42,0,0,1,5.53.63A10.9,10.9,0,0,0,63.88,75.95Z"/><path class="cls-15" d="M63.88,75.95a25.75,25.75,0,0,0-5.12.11c0,.19.9,2.5.9,2.5a1.85,1.85,0,0,1,1.6-.32,2.73,2.73,0,0,1,0-1.59,19.42,19.42,0,0,1,5.53.63A10.9,10.9,0,0,0,63.88,75.95Z"/></g><path class="cls-8" d="M30.26,80.36c-.18-1.44-.33-3.88,3-4.93S59.9,74,59.9,74l.84,6.73s-17.65,3.62-24.18,3.66C33.06,84.39,30.67,83.64,30.26,80.36Z"/><g class="cls-16"><path class="cls-17" d="M30.26,80.36c-.18-1.44-.33-3.88,3-4.93S59.9,74,59.9,74l.84,6.73s-17.65,3.62-24.18,3.66C33.06,84.39,30.67,83.64,30.26,80.36Z"/></g><path class="cls-11" d="M35.61,72.7s-2.88,2.47-3,4-.11,2,.26,2.43,2.58,1,2.62.3a12.63,12.63,0,0,1,.19-3,4.14,4.14,0,0,1,1.16-.9,8.15,8.15,0,0,1,.28,2.21.81.81,0,0,0,.69.8,8.88,8.88,0,0,0,.26-3.27,2.88,2.88,0,0,1,.41-2.13Z"/><path class="cls-12" d="M37.16,77.78a.81.81,0,0,0,.69.8,8.88,8.88,0,0,0,.26-3.27,2.88,2.88,0,0,1,.41-2.13l-2.91-.49s-.37.32-.86.81a2,2,0,0,1,1.11,1.19,5.15,5.15,0,0,0-1.3,3.6c0,.89-1.13.83-1.76.71l.11.17c.45.58,2.58,1,2.62.3a12.63,12.63,0,0,1,.19-3,4.14,4.14,0,0,1,1.16-.9A8.15,8.15,0,0,1,37.16,77.78Z"/><g class="cls-13"><path class="cls-18" d="M35.61,72.7s-2.88,2.47-3,4-.11,2,.26,2.43,2.58,1,2.62.3a12.63,12.63,0,0,1,.19-3,4.14,4.14,0,0,1,1.16-.9,8.15,8.15,0,0,1,.28,2.21.81.81,0,0,0,.69.8,8.88,8.88,0,0,0,.26-3.27,2.88,2.88,0,0,1,.41-2.13Z"/><path class="cls-19" d="M37.16,77.78a.81.81,0,0,0,.69.8,8.88,8.88,0,0,0,.26-3.27,2.88,2.88,0,0,1,.41-2.13l-2.91-.49s-.37.32-.86.81a2,2,0,0,1,1.11,1.19,5.15,5.15,0,0,0-1.3,3.6c0,.89-1.13.83-1.76.71l.11.17c.45.58,2.58,1,2.62.3a12.63,12.63,0,0,1,.19-3,4.14,4.14,0,0,1,1.16-.9A8.15,8.15,0,0,1,37.16,77.78Z"/></g><path class="cls-11" d="M81.75,72.7s2.88,2.47,3,4,.11,2-.26,2.43-2.58,1-2.62.3a12.62,12.62,0,0,0-.19-3,4.14,4.14,0,0,0-1.16-.9,8.12,8.12,0,0,0-.28,2.21.81.81,0,0,1-.69.8,8.88,8.88,0,0,1-.26-3.27,2.88,2.88,0,0,0-.41-2.13Z"/><path class="cls-12" d="M80.2,77.78a.81.81,0,0,1-.69.8,8.88,8.88,0,0,1-.26-3.27,2.88,2.88,0,0,0-.41-2.13l2.92-.49s.38.32.86.81a2,2,0,0,0-1.11,1.19,5.15,5.15,0,0,1,1.29,3.6c0,.89,1.13.83,1.76.71l-.12.17c-.45.58-2.58,1-2.62.3a12.67,12.67,0,0,0-.19-3,4.14,4.14,0,0,0-1.16-.9A8.12,8.12,0,0,0,80.2,77.78Z"/><g class="cls-13"><path class="cls-20" d="M81.75,72.7s2.88,2.47,3,4,.11,2-.26,2.43-2.58,1-2.62.3a12.62,12.62,0,0,0-.19-3,4.14,4.14,0,0,0-1.16-.9,8.12,8.12,0,0,0-.28,2.21.81.81,0,0,1-.69.8,8.88,8.88,0,0,1-.26-3.27,2.88,2.88,0,0,0-.41-2.13Z"/><path class="cls-20" d="M80.2,77.78a.81.81,0,0,1-.69.8,8.88,8.88,0,0,1-.26-3.27,2.88,2.88,0,0,0-.41-2.13l2.92-.49s.38.32.86.81a2,2,0,0,0-1.11,1.19,5.15,5.15,0,0,1,1.29,3.6c0,.89,1.13.83,1.76.71l-.12.17c-.45.58-2.58,1-2.62.3a12.67,12.67,0,0,0-.19-3,4.14,4.14,0,0,0-1.16-.9A8.12,8.12,0,0,0,80.2,77.78Z"/></g><path class="cls-7" d="M72.51,62.53c-1-1.78-1.87-11.35-2.75-14.81-.92-3.63-1.1-4.22-3.41-4.86a38,38,0,0,0-4.63-1c-.85-.16-5,0-5.87,0a17.46,17.46,0,0,0-4.66,1c-2.31.65-2.49,1.23-3.41,4.86-.88,3.46-1.68,13-2.73,14.81s-10.14,10-10.14,10,.14.45,1.53,1.18c1.69.89,2.15.56,2.15.56S48.86,66.5,50.06,63.82c.71-1.58,2.12-7.19,2.12-7.19l1.35,7.43s1.58,1,5.14,1h.21c3.56,0,4.52-1,4.52-1l2-7.49s1.42,5.6,2.13,7.19C68.7,66.5,79,74.29,79,74.29a5.23,5.23,0,0,0,1.86-.64,5.92,5.92,0,0,0,1.82-1.1S73.56,64.3,72.51,62.53Z"/><path class="cls-21" d="M65.93,49.28s-1.5,4.17-7.13,4.23h-.24c-5.63-.06-7.13-4.23-7.13-4.23a16.79,16.79,0,0,0-.25,4.49A10,10,0,0,0,51.35,55c-.22,2.3-.51,5.77-.91,7.86.78-2.18,1.74-6.15,1.74-6.15l1.38,7.45s1.45,1,5,1h.2c3.56,0,4.64-1,4.64-1l2-7.49s1,4.13,1.77,6.25c-.42-2.06-.91-5.55-1.13-7.94a10.19,10.19,0,0,0,.17-1.18A16.79,16.79,0,0,0,65.93,49.28Z"/><ellipse class="cls-8" cx="58.88" cy="22.76" rx="3.83" ry="3.51"/><ellipse class="cls-8" cx="58.81" cy="29.87" rx="7.33" ry="7.96"/><path class="cls-11" d="M61.73,42.62c-1-1.37-.74-5.85-.74-5.85l-2-.21V36.5l-.28,0-.29,0v.06l-2,.21s.3,4.48-.74,5.85a6.18,6.18,0,0,0,3,1A5.65,5.65,0,0,0,61.73,42.62Z"/><path class="cls-12" d="M56.48,36.81v0h0c0,.65.21,4.5-.74,5.75,0,0,1-.59,1.34-3.88a2.93,2.93,0,0,0,3.31.16c.39,3.15,1.32,3.72,1.32,3.72v0c-1-1.4-.72-5.82-.72-5.82l-.79-.08L59,36.56V36.5l-.14,0-.14,0h0l-.29,0v.06l-2,.21Z"/><path class="cls-12" d="M54.65,31.73s-1.28-.54-.78.86a5.63,5.63,0,0,0,1.56,2.25l-.39-3Z"/><path class="cls-12" d="M63,31.73s1.25-.54.76.86a5.64,5.64,0,0,1-1.52,2.25l.38-3Z"/><path class="cls-11" d="M62.77,27.44l-4,1.7v0h-.05v0l-3.81,1.56s-.79,7.23,3.81,7.65h.05C64.31,38.27,62.77,27.44,62.77,27.44Z"/><path class="cls-12" d="M62.77,27.44l-4,1.7v0h-.05v0l-3.81,1.56s-.57,5.19,2.06,7a7.4,7.4,0,0,1-1.36-6.19l6.79-3.18a25.44,25.44,0,0,1,0,6.83C63.42,32,62.77,27.44,62.77,27.44Z"/><g class="cls-13"><path class="cls-22" d="M61.73,42.62c-1-1.37-.74-5.85-.74-5.85l-2-.21V36.5l-.28,0-.29,0v.06l-2,.21s.3,4.48-.74,5.85a6.18,6.18,0,0,0,3,1A5.65,5.65,0,0,0,61.73,42.62Z"/><path class="cls-23" d="M56.48,36.81v0h0c0,.65.21,4.5-.74,5.75,0,0,1-.59,1.34-3.88a2.93,2.93,0,0,0,3.31.16c.39,3.15,1.32,3.72,1.32,3.72v0c-1-1.4-.72-5.82-.72-5.82l-.79-.08L59,36.56V36.5l-.14,0-.14,0h0l-.29,0v.06l-2,.21Z"/><path class="cls-23" d="M56.48,36.81v0h0c0,.65.21,4.5-.74,5.75,0,0,1-.59,1.34-3.88a2.93,2.93,0,0,0,3.31.16c.39,3.15,1.32,3.72,1.32,3.72v0c-1-1.4-.72-5.82-.72-5.82l-.79-.08L59,36.56V36.5l-.14,0-.14,0h0l-.29,0v.06l-2,.21Z"/><path class="cls-24" d="M54.65,31.73s-1.28-.54-.78.86a5.63,5.63,0,0,0,1.56,2.25l-.39-3Z"/><path class="cls-24" d="M54.65,31.73s-1.28-.54-.78.86a5.63,5.63,0,0,0,1.56,2.25l-.39-3Z"/><path class="cls-25" d="M63,31.73s1.25-.54.76.86a5.64,5.64,0,0,1-1.52,2.25l.38-3Z"/><path class="cls-25" d="M63,31.73s1.25-.54.76.86a5.64,5.64,0,0,1-1.52,2.25l.38-3Z"/><path class="cls-26" d="M62.77,27.44l-4,1.7v0h-.05v0l-3.81,1.56s-.79,7.23,3.81,7.65h.05C64.31,38.27,62.77,27.44,62.77,27.44Z"/><path class="cls-27" d="M62.77,27.44l-4,1.7v0h-.05v0l-3.81,1.56s-.57,5.19,2.06,7a7.4,7.4,0,0,1-1.36-6.19l6.79-3.18a25.44,25.44,0,0,1,0,6.83C63.42,32,62.77,27.44,62.77,27.44Z"/><path class="cls-27" d="M62.77,27.44l-4,1.7v0h-.05v0l-3.81,1.56s-.57,5.19,2.06,7a7.4,7.4,0,0,1-1.36-6.19l6.79-3.18a25.44,25.44,0,0,1,0,6.83C63.42,32,62.77,27.44,62.77,27.44Z"/></g><path class="cls-28" d="M99.83,44.06A5.05,5.05,0,0,0,98,42.21a5.1,5.1,0,0,0-5.09,0A5,5,0,0,0,91,44.06a5.1,5.1,0,0,0,0,5.09A5,5,0,0,0,92.89,51,5.1,5.1,0,0,0,98,51a5,5,0,0,0,1.85-1.85,5.11,5.11,0,0,0,0-5.09Zm-2,4.24-.69-1.06H93.71L93,48.3H92.4l3-4.56,3,4.56Zm-2.41-3.5,1.33,2H94.11Zm0,0"/><path class="cls-29" d="M73,15.4h6.57V16h1.78V14.21h-.59V7.64h.59V5.86H79.55v.59H73V5.86H71.21V7.64h.59v6.57h-.59V16H73Zm-.59-7.75H73V7.05h6.57v.59h.59v6.57h-.59v.59H73v-.59h-.59Zm0,0"/><path class="cls-29" d="M74.17,9.13h1.5v4.19h-.89v.59h3v-.59h-.89V9.13h1.5v.59H79V7.94H73.58V9.72h.59Zm0,0"/><path class="cls-28" d="M32.27,26.93a2.92,2.92,0,0,0-1.7.59l.78,1a1.87,1.87,0,0,1,.92-.33.94.94,0,0,1,1,1,2.66,2.66,0,0,0-1.31-.06,2,2,0,0,0-1.37,2.55,1.53,1.53,0,0,0,2.68.39v.66h1.31V29.35a2.23,2.23,0,0,0-2.29-2.42Zm-.66,4.25c-.06-1.24,1-1.24,1.64-1.18v.66c0,.79-1.5,1.5-1.64.52Zm0,0"/><path class="cls-28" d="M28.61,32.88H30L27.89,25H26.12l-2,7.85h1.37l.65-2.62h1.77ZM26.45,29l.52-2.1.59,2.1Zm0,0"/></g></g></g></svg>