<svg xmlns="http://www.w3.org/2000/svg" xmlns:xlink="http://www.w3.org/1999/xlink" viewBox="0 0 104.99 89.57"><defs><style>.cls-1{fill:#ffd699;}.cls-2,.cls-28{fill:#fff;}.cls-2{clip-path:url(#clip-path);}.cls-3{isolation:isolate;}.cls-4{fill:#e2e5f6;}.cls-5,.cls-9{mix-blend-mode:soft-light;}.cls-6{fill:url(#Áåçûìÿííûé_ãðàäèåíò_269);}.cls-7{fill:url(#Áåçûìÿííûé_ãðàäèåíò_269-2);}.cls-33,.cls-8{fill:#919cb9;}.cls-9{fill:url(#linear-gradient);}.cls-10{fill:#f4af9f;}.cls-11{fill:#f4907d;}.cls-12{opacity:0.72;mix-blend-mode:overlay;}.cls-13{fill:url(#Áåçûìÿííûé_ãðàäèåíò_19);}.cls-14{fill:url(#Áåçûìÿííûé_ãðàäèåíò_19-2);}.cls-15{fill:url(#Áåçûìÿííûé_ãðàäèåíò_19-3);}.cls-16{fill:url(#Áåçûìÿííûé_ãðàäèåíò_19-4);}.cls-17{fill:url(#Áåçûìÿííûé_ãðàäèåíò_19-5);}.cls-18{fill:url(#Áåçûìÿííûé_ãðàäèåíò_19-6);}.cls-19{fill:url(#Áåçûìÿííûé_ãðàäèåíò_19-7);}.cls-20{fill:url(#Áåçûìÿííûé_ãðàäèåíò_19-8);}.cls-21{fill:url(#Áåçûìÿííûé_ãðàäèåíò_19-9);}.cls-22{fill:url(#Áåçûìÿííûé_ãðàäèåíò_19-10);}.cls-23{fill:none;}.cls-24,.cls-25{fill:#2d3445;}.cls-24{opacity:0.5;}.cls-25{opacity:0.3;}.cls-26{fill:#82b9ff;}.cls-27{fill:#ffd7d6;}.cls-29,.cls-33{mix-blend-mode:multiply;}.cls-30{fill:#bdccd4;}.cls-31{fill:#ff7d7d;}.cls-32{clip-path:url(#clip-path-2);}</style><clipPath id="clip-path"><rect class="cls-1" x="36.14" y="2.04" width="9.27" height="7.06" rx="1.51" ry="1.51"/></clipPath><linearGradient id="Áåçûìÿííûé_ãðàäèåíò_269" x1="6.47" y1="41.4" x2="56.45" y2="94.9" gradientUnits="userSpaceOnUse"><stop offset="0.1" stop-color="#fff"/><stop offset="0.84" stop-color="#383838"/></linearGradient><linearGradient id="Áåçûìÿííûé_ãðàäèåíò_269-2" x1="73.07" y1="48.44" x2="113.31" y2="12.86" xlink:href="#Áåçûìÿííûé_ãðàäèåíò_269"/><linearGradient id="linear-gradient" x1="51.02" y1="64.92" x2="51.02" y2="-11.23" gradientUnits="userSpaceOnUse"><stop offset="0" stop-color="#fff"/><stop offset="0.14" stop-color="#f7f7f7"/><stop offset="0.35" stop-color="#e3e3e3"/><stop offset="0.61" stop-color="silver"/><stop offset="0.9" stop-color="#919191"/><stop offset="1" stop-color="gray"/></linearGradient><linearGradient id="Áåçûìÿííûé_ãðàäèåíò_19" x1="37.22" y1="10.67" x2="36.85" y2="81.02" gradientUnits="userSpaceOnUse"><stop offset="0" stop-color="#d6d6d6"/><stop offset="1" stop-color="gray"/></linearGradient><linearGradient id="Áåçûìÿííûé_ãðàäèåíò_19-2" x1="34.24" y1="10.65" x2="33.88" y2="81.01" xlink:href="#Áåçûìÿííûé_ãðàäèåíò_19"/><linearGradient id="Áåçûìÿííûé_ãðàäèåíò_19-3" x1="69.21" y1="10.83" x2="68.84" y2="81.19" gradientTransform="translate(2.18 -3.99) rotate(3.37)" xlink:href="#Áåçûìÿííûé_ãðàäèåíò_19"/><linearGradient id="Áåçûìÿííûé_ãðàäèåíò_19-4" x1="69.4" y1="10.84" x2="69.03" y2="81.19" gradientTransform="translate(29.68 -23.87) rotate(24.78)" xlink:href="#Áåçûìÿííûé_ãðàäèåíò_19"/><linearGradient id="Áåçûìÿííûé_ãðàäèåíò_19-5" x1="69.27" y1="10.83" x2="68.9" y2="81.19" xlink:href="#Áåçûìÿííûé_ãðàäèåíò_19"/><linearGradient id="Áåçûìÿííûé_ãðàäèåíò_19-6" x1="69.56" y1="10.84" x2="69.19" y2="81.19" xlink:href="#Áåçûìÿííûé_ãðàäèåíò_19"/><linearGradient id="Áåçûìÿííûé_ãðàäèåíò_19-7" x1="70.84" y1="10.84" x2="70.48" y2="81.2" gradientTransform="translate(23.75 -25.84) rotate(24.78)" xlink:href="#Áåçûìÿííûé_ãðàäèåíò_19"/><linearGradient id="Áåçûìÿííûé_ãðàäèåíò_19-8" x1="69.95" y1="10.84" x2="69.58" y2="81.19" xlink:href="#Áåçûìÿííûé_ãðàäèåíò_19"/><linearGradient id="Áåçûìÿííûé_ãðàäèåíò_19-9" x1="71.1" y1="10.84" x2="70.73" y2="81.2" xlink:href="#Áåçûìÿííûé_ãðàäèåíò_19"/><linearGradient id="Áåçûìÿííûé_ãðàäèåíò_19-10" x1="70.2" y1="10.84" x2="69.83" y2="81.2" xlink:href="#Áåçûìÿííûé_ãðàäèåíò_19"/><clipPath id="clip-path-2"><path class="cls-2" d="M43.9,9.32H37.65a1.73,1.73,0,0,1-1.73-1.73v-4a1.73,1.73,0,0,1,1.73-1.73H43.9a1.73,1.73,0,0,1,1.73,1.73v4A1.73,1.73,0,0,1,43.9,9.32ZM37.65,2.26a1.29,1.29,0,0,0-1.29,1.29v4a1.29,1.29,0,0,0,1.29,1.29H43.9a1.29,1.29,0,0,0,1.29-1.29v-4A1.29,1.29,0,0,0,43.9,2.26Z"/></clipPath></defs><title>offer5</title><g class="cls-3"><g id="Layer_2" data-name="Layer 2"><g id="Layer_1-2" data-name="Layer 1"><path class="cls-4" d="M104.52,31.61a33,33,0,0,0-5-14.37c-2.86-4.24-7.4-7.55-12.49-8-7.82-.65-14.46,5.23-21.72,8.19C56.69,21,47,20.34,37.72,21.57c-9.6,1.27-19.11,4.73-26.37,11.14s-12,16-11.27,25.67S7,77,15.25,82.25s18.2,7.34,28,7.32A67.28,67.28,0,0,0,81,78.2a57.18,57.18,0,0,0,22.95-31.8A38,38,0,0,0,104.52,31.61Z"/><g class="cls-5"><path class="cls-6" d="M55.1,87.51c-3.65-4.56-4.34-10.76-4.55-16.6S50.42,59,47.91,53.72s-8.61-9.4-14.13-7.5c-4.39,1.51-6.82,6-9.57,9.77s-7.39,7.24-11.67,5.46c-2.73-1.14-4.23-4-5.22-6.83A42.6,42.6,0,0,1,4.91,40.27,29.93,29.93,0,0,0,.07,58.38C.81,68.13,7,77,15.25,82.25s18.2,7.34,28,7.32a70.61,70.61,0,0,0,12.66-1.17C55.62,88.12,55.35,87.82,55.1,87.51Z"/></g><g class="cls-5"><path class="cls-7" d="M93.24,67a55.12,55.12,0,0,0,10.7-20.56,38,38,0,0,0,.58-14.8,33,33,0,0,0-5-14.37c-2.86-4.24-7.4-7.55-12.49-8-6.57-.55-12.3,3.51-18.28,6.58.08.36.16.73.27,1.08,3,10,16.08,13,21.78,21.74,3.47,5.3,3.77,12,3.45,18.35A77.92,77.92,0,0,1,93.24,67Z"/></g><rect class="cls-8" x="34.08" y="13.43" width="33.87" height="55.64" rx="4.93" ry="4.93"/><rect class="cls-4" x="35.87" y="17.65" width="30.3" height="47.27" rx="3.6" ry="3.6"/><rect class="cls-9" x="35.87" y="17.65" width="30.3" height="47.27" rx="3.6" ry="3.6"/><path class="cls-10" d="M38.87,69.07a5.2,5.2,0,0,1-4.79-4.84V53.88c0-1.07,0-2.09,0-3a16.24,16.24,0,0,1,.27-3.57c.56-1.49,1.79-10.16-.27-15.2a5.63,5.63,0,0,0-2.91-3.29c-5-2.06-1.68,8-2.56,10.71-2.84,8.76-4.68,15.57-4.68,23.07,0,3.9-2.37,10.57-7.73,15.92L34.82,88.7a15.64,15.64,0,0,1,9-7.91A26,26,0,0,0,57.58,69.07Z"/><path class="cls-11" d="M27.86,75.71l-3.93,6.65L34.82,88.7a15.64,15.64,0,0,1,9-7.91S38.12,83.33,27.86,75.71Z"/><rect class="cls-10" x="66.23" y="31.57" width="5.71" height="6.96" rx="2.46" ry="2.46" transform="translate(-1.94 4.12) rotate(-3.37)"/><rect class="cls-10" x="64.62" y="52.53" width="9.09" height="6.14" rx="2.79" ry="2.79" transform="translate(-16.94 34.11) rotate(-24.78)"/><path class="cls-11" d="M68.89,38.55l.79,0A2.47,2.47,0,0,0,72,35.9v0a6.31,6.31,0,0,1-5.71,0l0,.32A2.47,2.47,0,0,0,68.89,38.55Z"/><path class="cls-11" d="M69.86,56.95c-2.54,1-4.16.71-4.88.44l.17.38a2.79,2.79,0,0,0,3.7,1.36L72,57.65a2.79,2.79,0,0,0,1.44-3.5A7.31,7.31,0,0,1,69.86,56.95Z"/><path class="cls-10" d="M68.69,37.67h4a3.16,3.16,0,0,1,3.16,3.16v.65a3.16,3.16,0,0,1-3.16,3.16h-4a3.16,3.16,0,0,1-3.16-3.16v-.64A3.15,3.15,0,0,1,68.69,37.67Z" transform="translate(-10.74 33.41) rotate(-24.78)"/><path class="cls-10" d="M73,50.82,69.4,52.5A3.17,3.17,0,0,1,65.21,51l-.27-.58a3.17,3.17,0,0,1,1.54-4.19l3.62-1.67a3.17,3.17,0,0,1,4.19,1.54l.27.58A3.17,3.17,0,0,1,73,50.82Z"/><path class="cls-11" d="M70.33,45.15,74,43.47a3.17,3.17,0,0,0,1.71-3.73,8.07,8.07,0,0,1-4.23,3c-3.07,1.13-4.75.93-5.34.78l0,.11A3.17,3.17,0,0,0,70.33,45.15Z"/><path class="cls-11" d="M69.4,52.5,73,50.82A3.17,3.17,0,0,0,74.71,47a11.19,11.19,0,0,1-4.15,2.92c-3.16,1.46-4.75,1.17-5.42.86l.07.15A3.17,3.17,0,0,0,69.4,52.5Z"/><g class="cls-12"><path class="cls-13" d="M38.87,69.07a5.2,5.2,0,0,1-4.79-4.84V53.88c0-1.07,0-2.09,0-3a16.24,16.24,0,0,1,.27-3.57c.56-1.49,1.79-10.16-.27-15.2a5.63,5.63,0,0,0-2.91-3.29c-5-2.06-1.68,8-2.56,10.71-2.84,8.76-4.68,15.57-4.68,23.07,0,3.9-2.37,10.57-7.73,15.92L34.82,88.7a15.64,15.64,0,0,1,9-7.91A26,26,0,0,0,57.58,69.07Z"/><path class="cls-14" d="M27.86,75.71l-3.93,6.65L34.82,88.7a15.64,15.64,0,0,1,9-7.91S38.12,83.33,27.86,75.71Z"/><rect class="cls-15" x="66.23" y="31.57" width="5.71" height="6.96" rx="2.46" ry="2.46" transform="translate(-1.94 4.12) rotate(-3.37)"/><rect class="cls-16" x="64.62" y="52.53" width="9.09" height="6.14" rx="2.79" ry="2.79" transform="translate(-16.94 34.11) rotate(-24.78)"/><path class="cls-17" d="M68.89,38.55l.79,0A2.47,2.47,0,0,0,72,35.9v0a6.31,6.31,0,0,1-5.71,0l0,.32A2.47,2.47,0,0,0,68.89,38.55Z"/><path class="cls-18" d="M69.86,56.95c-2.54,1-4.16.71-4.88.44l.17.38a2.79,2.79,0,0,0,3.7,1.36L72,57.65a2.79,2.79,0,0,0,1.44-3.5A7.31,7.31,0,0,1,69.86,56.95Z"/><path class="cls-19" d="M68.69,37.67h4a3.16,3.16,0,0,1,3.16,3.16v.65a3.16,3.16,0,0,1-3.16,3.16h-4a3.16,3.16,0,0,1-3.16-3.16v-.64A3.15,3.15,0,0,1,68.69,37.67Z" transform="translate(-10.74 33.41) rotate(-24.78)"/><path class="cls-20" d="M73,50.82,69.4,52.5A3.17,3.17,0,0,1,65.21,51l-.27-.58a3.17,3.17,0,0,1,1.54-4.19l3.62-1.67a3.17,3.17,0,0,1,4.19,1.54l.27.58A3.17,3.17,0,0,1,73,50.82Z"/><path class="cls-21" d="M70.33,45.15,74,43.47a3.17,3.17,0,0,0,1.71-3.73,8.07,8.07,0,0,1-4.23,3c-3.07,1.13-4.75.93-5.34.78l0,.11A3.17,3.17,0,0,0,70.33,45.15Z"/><path class="cls-22" d="M69.4,52.5,73,50.82A3.17,3.17,0,0,0,74.71,47a11.19,11.19,0,0,1-4.15,2.92c-3.16,1.46-4.75,1.17-5.42.86l.07.15A3.17,3.17,0,0,0,69.4,52.5Z"/></g><path class="cls-23" d="M34.08,53.88v-3C34.07,51.8,34.07,52.81,34.08,53.88Z"/><rect class="cls-24" x="48.04" y="66.05" width="5.78" height="1.78" rx="0.76" ry="0.76"/><rect class="cls-25" x="48.3" y="14.95" width="5.35" height="1.25" rx="0.61" ry="0.61"/><rect class="cls-26" x="48.01" y="24.97" width="15.77" height="5.48" rx="0.74" ry="0.74"/><rect class="cls-27" x="38.04" y="32.49" width="15.77" height="5.48" rx="0.74" ry="0.74"/><rect class="cls-26" x="48.01" y="40.09" width="15.77" height="5.48" rx="0.74" ry="0.74" transform="translate(111.79 85.66) rotate(180)"/><path class="cls-27" d="M38.78,47.69h14.3a.74.74,0,0,1,.74.74v4a.74.74,0,0,1-.74.74H38.78a.74.74,0,0,1-.74-.74v-4A.73.73,0,0,1,38.78,47.69Z"/><rect class="cls-26" x="47.92" y="55.26" width="15.77" height="5.48" rx="0.74" ry="0.74" transform="translate(111.61 116) rotate(180)"/><path class="cls-28" d="M62.06,28H53.51a.21.21,0,0,1,0-.43h8.55a.21.21,0,0,1,0,.43Z"/><path class="cls-28" d="M62.06,26.54H52a.21.21,0,0,1,0-.43h10.1a.21.21,0,0,1,0,.43Z"/><path class="cls-28" d="M62.06,29.51H55.18a.21.21,0,0,1,0-.43h6.88a.21.21,0,0,1,0,.43Z"/><path class="cls-28" d="M62.06,43H53.51a.21.21,0,0,1,0-.43h8.55a.21.21,0,0,1,0,.43Z"/><path class="cls-28" d="M62.06,41.56H52a.21.21,0,1,1,0-.43h10.1a.21.21,0,0,1,0,.43Z"/><path class="cls-28" d="M62.06,44.53H55.18a.21.21,0,1,1,0-.43h6.88a.21.21,0,0,1,0,.43Z"/><path class="cls-28" d="M49.06,50.6H40.5a.21.21,0,0,1,0-.43h8.55a.21.21,0,0,1,0,.43Z"/><path class="cls-28" d="M50.6,49.16H40.5a.21.21,0,0,1,0-.43H50.6a.21.21,0,1,1,0,.43Z"/><path class="cls-28" d="M47.39,52.13H40.5a.21.21,0,0,1,0-.43h6.88a.21.21,0,1,1,0,.43Z"/><path class="cls-28" d="M49.06,35.4H40.5a.21.21,0,0,1,0-.43h8.55a.21.21,0,0,1,0,.43Z"/><path class="cls-28" d="M50.6,34H40.5a.21.21,0,0,1,0-.43H50.6a.21.21,0,1,1,0,.43Z"/><path class="cls-28" d="M47.39,36.93H40.5a.21.21,0,0,1,0-.43h6.88a.21.21,0,1,1,0,.43Z"/><path class="cls-28" d="M62.06,58.17H53.51a.21.21,0,0,1,0-.43h8.55a.21.21,0,0,1,0,.43Z"/><path class="cls-28" d="M62.06,56.73H52a.21.21,0,1,1,0-.43h10.1a.21.21,0,0,1,0,.43Z"/><path class="cls-28" d="M62.06,59.7H55.18a.21.21,0,1,1,0-.43h6.88a.21.21,0,0,1,0,.43Z"/><path class="cls-28" d="M15.25,82.25c8,5.16,17.71,7.24,27.26,7.32L43,88.39a.8.8,0,0,0-.29-1.09L16.93,72.39a.8.8,0,0,0-1.09.29l-3.95,7.11A35.82,35.82,0,0,0,15.25,82.25Z"/><g class="cls-29"><path class="cls-30" d="M72,21.25H66.91a7.6,7.6,0,1,0,0,15.2H72Z"/><path class="cls-30" d="M63.58,28.22V39.88l5.64-6S63.41,28.22,63.58,28.22Z"/></g><path class="cls-26" d="M67.85,34.58H86.27a7.62,7.62,0,0,0,7.6-7.6h0a7.62,7.62,0,0,0-7.6-7.6H67.85a7.62,7.62,0,0,0-7.6,7.6h0A7.62,7.62,0,0,0,67.85,34.58Z"/><path class="cls-26" d="M64.51,26.35V38l5.64-6S64.34,26.35,64.51,26.35Z"/><path class="cls-28" d="M88.26,24.4H66a.27.27,0,0,1,0-.54h22.3a.27.27,0,0,1,0,.54Z"/><path class="cls-28" d="M84.49,27.27H66a.27.27,0,0,1,0-.54H84.49a.27.27,0,0,1,0,.54Z"/><path class="cls-28" d="M87.77,30.1H66a.27.27,0,1,1,0-.54H87.77a.27.27,0,1,1,0,.54Z"/><g class="cls-29"><path class="cls-30" d="M37.26,19.36H34v10h3.23a5,5,0,0,0,0-10Z"/><path class="cls-30" d="M39.18,23.93v7.64l-3.69-4S39.29,23.93,39.18,23.93Z"/></g><path class="cls-31" d="M36.89,27.83H32.21a5,5,0,0,1-5-5h0a5,5,0,0,1,5-5h4.68a5,5,0,0,1,5,5h0A5,5,0,0,1,36.89,27.83Z"/><path class="cls-31" d="M38.8,22.44v7.64l-3.69-4S38.92,22.44,38.8,22.44Z"/><g class="cls-29"><path class="cls-30" d="M44.14,13.42h0a2.91,2.91,0,0,0,3,2.89H57.74a2.91,2.91,0,0,0,3-2.89H44.14Z"/></g><rect class="cls-26" x="43.23" y="3.88" width="16.55" height="10.93" rx="2.96" ry="2.96"/><path class="cls-28" d="M54.33,9.87a.56.56,0,0,0,0-1.06L50.5,6.58c-.5-.29-.91-.06-.91.52v4.5c0,.58.41.81.91.52Z"/><circle class="cls-28" cx="34.38" cy="22.85" r="3.23"/><ellipse class="cls-31" cx="33.03" cy="22.08" rx="0.36" ry="0.36"/><ellipse class="cls-31" cx="35.75" cy="22.08" rx="0.36" ry="0.36"/><path class="cls-31" d="M32.58,23.56H36.3a2.07,2.07,0,0,1-1.9,1.5A1.91,1.91,0,0,1,32.58,23.56Z"/><circle class="cls-28" cx="61.77" cy="19.78" r="4.24"/><circle class="cls-31" cx="61.77" cy="19.78" r="3.53"/><path class="cls-28" d="M62.15,18.55a.6.6,0,0,1-.75,0,1.08,1.08,0,0,0-.57-.16,1.06,1.06,0,0,0-1,1.08,1.11,1.11,0,0,0,.31.78l1.26,1.33a.53.53,0,0,0,.78,0l1.27-1.33a1.12,1.12,0,0,0,.31-.78,1.05,1.05,0,0,0-1-1.08A1.07,1.07,0,0,0,62.15,18.55Z"/><g class="cls-29"><path class="cls-30" d="M46.84,3.87H40.5V2.51H38.33a1.91,1.91,0,0,0-1.9,1.9V7.69h6.81v3.1H45a1.91,1.91,0,0,0,1.9-1.9V4.41A1.87,1.87,0,0,0,46.84,3.87Z"/></g><rect class="cls-26" x="35.53" y="1.43" width="10.5" height="8.28" rx="1.9" ry="1.9"/><rect class="cls-1" x="36.14" y="2.04" width="9.27" height="7.06" rx="1.51" ry="1.51"/><path class="cls-28" d="M43.9,9.32H37.65a1.73,1.73,0,0,1-1.73-1.73v-4a1.73,1.73,0,0,1,1.73-1.73H43.9a1.73,1.73,0,0,1,1.73,1.73v4A1.73,1.73,0,0,1,43.9,9.32ZM37.65,2.26a1.29,1.29,0,0,0-1.29,1.29v4a1.29,1.29,0,0,0,1.29,1.29H43.9a1.29,1.29,0,0,0,1.29-1.29v-4A1.29,1.29,0,0,0,43.9,2.26Z"/><g class="cls-32"><path class="cls-26" d="M36.08,6.68l2.37-1.36a1.14,1.14,0,0,1,1,0l1.45.86A1.49,1.49,0,0,0,42,6.31L42.94,6A1.64,1.64,0,0,1,44,6.08l1.06.54a1.08,1.08,0,0,1,.54.88V8.7a.62.62,0,0,1-.6.61l-8.44.13A.58.58,0,0,1,36,8.85S36,6.72,36.08,6.68Z"/></g><circle class="cls-28" cx="42.95" cy="4.11" r="0.7"/><circle class="cls-28" cx="36.37" cy="2.04" r="2.04"/><circle class="cls-31" cx="36.37" cy="2.04" r="1.7"/><path class="cls-28" d="M36.55,1.44a.29.29,0,0,1-.36,0,.52.52,0,0,0-.28-.07.51.51,0,0,0-.49.52.53.53,0,0,0,.15.38l.61.64a.25.25,0,0,0,.37,0l.61-.64a.54.54,0,0,0,.15-.38.51.51,0,0,0-.49-.52A.52.52,0,0,0,36.55,1.44Z"/><path class="cls-33" d="M34.08,51,32.27,65.78s-.76,5.69,5.79,5.69H56.13l1.45-2.4H39.14a5.16,5.16,0,0,1-5.06-5.26C34.07,58.86,34.08,51,34.08,51Z"/></g></g></g></svg>