<svg id="Layer_1" xmlns="http://www.w3.org/2000/svg" viewBox="0 0 280.1 235.9"><style>.st9{fill:#8880a0}.st11{fill:#3252a0}.st15{fill:#fff}.st16{fill:#e8eaf1}.st20{fill:#fed576}.st21{fill:#887fa1}.st22{fill:#ec6669}.st23{fill:#c4c0d0}.st24{fill:#484066}.st26{fill:#e2718c}</style><path class="st9" d="M239.5,32.5c-6.3,0-12.4-2-17.4-5.9c-0.5-0.4-0.6-1.1-0.2-1.6c0.4-0.5,1.1-0.6,1.6-0.2 c4.6,3.5,10.1,5.4,16,5.4c0.4,0,0.8,0,1.2,0c0.6,0,1.2,0.5,1.2,1.1c0,0.6-0.5,1.2-1.1,1.2C240.4,32.5,240,32.5,239.5,32.5z"/><path class="st9" d="M251.7,29.7c-0.4,0-0.8-0.2-1-0.6c-0.3-0.6-0.1-1.3,0.5-1.6c4.9-2.5,9-6.5,11.6-11.4c0.3-0.6,1-0.8,1.6-0.5 c0.6,0.3,0.8,1,0.5,1.6c-2.8,5.3-7.3,9.7-12.6,12.4C252.1,29.6,251.9,29.7,251.7,29.7z"/><g opacity=".1"><path class="st11" d="M259.7,103.7c-10.7-11.6-25.9-20.3-40.4-26c-2.6-1-5.1-2.2-7.6-3.6c-2.5-1.3-4.9-2.8-7.3-4.3 c-14.2-10.8-32.3-17.8-50.2-17.7c-3.6,0-7.2,0.3-10.7,1c-31.1,3-36.9,35.6-43.3,61.2c-2.9,10.5-13.4,15.1-23.2,18.6 c-2.1,0.8-4.3,1.6-6.5,2.6c-2.2,0.9-4.4,1.9-6.6,3.1c-11.5,6.1-21.2,15.5-27.5,26.9c-9.2,16.6-14.8,43.7,0.6,58.5 c11.5,11.1,30.6,13,45.8,11.8c19.3-1.5,39.4-5.8,55.2-16.8c33.3-23,60.6-28.2,100.3-35.7c10.5-2,20.9-8.6,28.9-15.6 C287.6,149.4,275,120.1,259.7,103.7z"/><path class="st11" d="M209.8,197.3c-0.2-0.3-0.5-0.6-0.7-0.8c-2.2-2-5.4-1.8-8.1-1.3c-12.2,2.1-24.2,7.2-33.5,15.5 c-1,0.9-2,1.9-2.6,3.1c-2.4,4.8,2.5,5.9,6,4.9c11.6-3.3,23.4-7,34.3-12.2c1.9-0.9,3.9-1.9,5-3.7 C211.4,201,211.1,198.9,209.8,197.3z"/><path class="st11" d="M64.7,87.7c-1.3,1.7-2.8,3.2-4.5,4.5c-2.1,1.5-4.4,2.7-6.6,4.1c-2.2,1.4-4.3,3.1-5.5,5.4 c-1.2,2.3-1.4,5.3,0.1,7.4c1.2,1.7,3.2,2.6,5.2,2.7c2.8,0.2,5.5-1,7.9-2.4c14-8.2,20.1-24.5,26.7-38.4c4.9-10.5,11-21.6,20.9-28.1 c3.4-2.2,7.3-3.9,10.1-6.9c2.8-3,4.3-7.8,1.9-11.1c-1.8-2.5-5.3-3.3-8.3-2.8c-4.7,0.9-8.7,4.5-12.3,7.4 c-3.8,3.1-7.2,6.5-10.4,10.2c-6.4,7.4-11.6,15.7-15.4,24.8c-1.7,4.1-3.1,8.4-4.2,12.7C69.3,80.9,67.1,84.7,64.7,87.7z"/></g><path d="M59.1,151.2l-11.9-0.3c-2.8,3.2-5.1,6.6-6.6,10.2c-0.3,0.8-0.6,1.5-0.9,2.3c-4.6,14.4-1.5,31,9.7,41.6 c2.3,2.2,4.7,3.9,7.3,5.3c0.5-10.2,1.9-28.1,3.2-35.6C61.9,164.3,59.1,151.2,59.1,151.2z" fill="#7dc6c2"/><path class="st15" d="M77.3,111.2L77.3,111.2c-2.5,4.9-2.4,8.8-2.4,8.8l0,0C74.9,120,74.8,116.1,77.3,111.2z"/><path class="st15" d="M82.8,122c-0.3-0.1-0.6-0.1-0.9-0.2C82.2,121.9,82.5,121.9,82.8,122z"/><path class="st15" d="M84.8,122.3c-0.3,0-0.6-0.1-0.9-0.1C84.1,122.2,84.5,122.2,84.8,122.3z"/><path class="st15" d="M78.2,121.1c-0.2,0-0.3-0.1-0.5-0.1C77.8,121,78,121,78.2,121.1z"/><path class="st15" d="M81,121.7c-0.1,0-0.3,0-0.4-0.1C80.8,121.6,80.9,121.6,81,121.7z"/><path class="st15" d="M89.6,122.8c-0.5,0-1-0.1-1.6-0.2C88.5,122.7,89,122.8,89.6,122.8z"/><path class="st15" d="M77.1,120.8c-0.2-0.1-0.4-0.1-0.5-0.2C76.7,120.7,76.9,120.7,77.1,120.8z"/><path class="st15" d="M86.8,122.5c-0.3,0-0.6-0.1-0.8-0.1C86.2,122.5,86.5,122.5,86.8,122.5z"/><path class="st15" d="M90.8,122.9c1.8,0.2,3.6,0.3,5.4,0.4l0,0C94.4,123.2,92.6,123.1,90.8,122.9z"/><path class="st15" d="M97.2,123.3c-0.4,0-0.7,0-1.1-0.1l0,0C96.5,123.3,96.9,123.3,97.2,123.3L97.2,123.3z"/><path class="st16" d="M86,122.4c-0.4,0-0.8-0.1-1.2-0.1C85.2,122.3,85.6,122.4,86,122.4z"/><path class="st16" d="M83.8,122.1c-0.3,0-0.7-0.1-1-0.2C83.2,122,83.5,122.1,83.8,122.1z"/><path class="st16" d="M88,122.7c-0.4,0-0.8-0.1-1.2-0.1C87.2,122.6,87.6,122.6,88,122.7z"/><path class="st16" d="M74.9,120L74.9,120c0.5,0.2,1.1,0.4,1.6,0.6C75.9,120.4,75.4,120.2,74.9,120z"/><path class="st16" d="M90.8,122.9c-0.4,0-0.8-0.1-1.2-0.1C90,122.8,90.4,122.9,90.8,122.9z"/><path class="st16" d="M80.6,121.6c-0.9-0.2-1.7-0.3-2.5-0.5C79,121.3,79.8,121.4,80.6,121.6z"/><path class="st16" d="M77.7,120.9c-0.2-0.1-0.4-0.1-0.6-0.2C77.3,120.8,77.5,120.9,77.7,120.9z"/><path class="st16" d="M81.9,121.8c-0.3-0.1-0.6-0.1-0.9-0.2C81.3,121.7,81.6,121.8,81.9,121.8z"/><path fill="#81769f" d="M39.1 158.1L0 170.1 12.5 210.7 49.7 193.3 43.2 158.2z"/><path opacity=".61" fill="#fff" d="M39.1 158.1L0 170.1 12.5 210.7 49.7 193.3 43.2 158.2z"/><path fill="#ece9f5" d="M44.4 156.2L6.5 155.7 7.4 199.4 44.5 195.1 48.3 157.5z"/><path class="st16" d="M83,161.1c-1-0.1-1.9-0.3-2.7-0.8c-0.7-0.5-1.3-1.1-1.7-1.9c-0.4-0.8-0.6-1.7-0.7-2.7c0-1,0.1-2.1,0.5-3.2 L112.2,54c0.3-1,0.9-1.9,1.5-2.8c0.6-0.9,1.4-1.7,2.3-2.3c0.9-0.7,1.8-1.2,2.8-1.6c1-0.4,2-0.6,2.9-0.7l143.7-6.8 c1.2-0.1,2.4,0.1,3.3,0.5c1,0.4,1.8,0.9,2.5,1.6c0.7,0.7,1.1,1.5,1.4,2.5c0.2,0.9,0.3,2,0,3.1l-25.5,112.6 c-0.3,1.3-0.9,2.6-1.6,3.7c-0.8,1.1-1.7,2.1-2.8,2.9c-1.1,0.8-2.3,1.5-3.6,1.9c-1.3,0.4-2.6,0.6-3.9,0.6L83,161.1L83,161.1z M269.6,33.9l-148.4,7.6c-1.4,0.1-2.8,0.4-4.1,1c-1.3,0.6-2.7,1.3-3.9,2.3c-1.2,0.9-2.3,2-3.2,3.2c-0.9,1.2-1.6,2.5-2.1,3.9 L72.2,154.8c-0.5,1.6-0.8,3.1-0.8,4.5c0,1.4,0.4,2.7,0.9,3.8c0.6,1.1,1.4,2,2.4,2.7c1,0.7,2.3,1.1,3.7,1.2l158.2,9.2 c1.9,0.1,3.7-0.2,5.5-0.8c1.8-0.6,3.5-1.5,5-2.7c1.5-1.2,2.9-2.6,3.9-4.2c1.1-1.6,1.8-3.3,2.3-5.2l26.3-118.8c0.3-1.6,0.3-3,0-4.4 c-0.4-1.3-1-2.5-2-3.4c-0.9-1-2.1-1.7-3.5-2.2C272.9,34.1,271.3,33.9,269.6,33.9L269.6,33.9z"/><path class="st15" d="M183.7,73.5c-0.7,0-1.4-0.1-1.9-0.4c-0.5-0.3-1-0.6-1.3-1.1c-0.3-0.5-0.5-1-0.6-1.6c-0.1-0.6,0-1.3,0.2-2 c0.2-0.7,0.6-1.4,1-2c0.4-0.6,1-1.2,1.6-1.7c0.6-0.5,1.3-0.9,2-1.2c0.7-0.3,1.4-0.4,2.1-0.5c0.7,0,1.4,0.1,1.9,0.3 c0.5,0.2,1,0.6,1.3,1.1c0.3,0.5,0.6,1,0.6,1.6c0.1,0.6,0,1.3-0.2,2c-0.2,0.7-0.5,1.4-1,2.1c-0.4,0.6-1,1.2-1.6,1.7 c-0.6,0.5-1.3,0.9-2,1.2C185.2,73.4,184.4,73.5,183.7,73.5L183.7,73.5z M187.6,60.2c-1.1,0-2.2,0.3-3.3,0.7 c-1.1,0.4-2.1,1.1-3,1.8c-0.9,0.8-1.8,1.6-2.4,2.6c-0.7,1-1.2,2-1.5,3.2c-0.3,1.1-0.4,2.2-0.3,3.1c0.1,1,0.4,1.8,0.9,2.6 c0.5,0.7,1.2,1.3,2,1.7c0.8,0.4,1.8,0.6,2.9,0.6c1.1,0,2.2-0.3,3.3-0.7c1.1-0.4,2.1-1.1,3.1-1.8c0.9-0.8,1.8-1.7,2.5-2.7 c0.7-1,1.2-2.1,1.5-3.2c0.3-1.1,0.4-2.2,0.3-3.2c-0.1-1-0.5-1.8-1-2.5c-0.5-0.7-1.2-1.3-2.1-1.7C189.6,60.3,188.7,60.1,187.6,60.2 L187.6,60.2z M128.8,146.2c-0.1,0-0.1,0-0.2,0c0,0-0.1-0.1-0.1-0.1c0,0,0-0.1,0-0.2c0-0.1,0-0.1,0-0.2c0-0.1,0.1-0.1,0.1-0.2 c0-0.1,0.1-0.1,0.1-0.1c0.1,0,0.1-0.1,0.2-0.1c0.1,0,0.1,0,0.2,0l35.9,1.3c0.1,0,0.1,0,0.2,0c0,0,0.1,0.1,0.1,0.1 c0,0,0,0.1,0.1,0.2c0,0.1,0,0.1,0,0.2c0,0.1,0,0.1-0.1,0.2c0,0.1-0.1,0.1-0.1,0.1c-0.1,0-0.1,0.1-0.2,0.1c-0.1,0-0.1,0-0.2,0 L128.8,146.2L128.8,146.2z M130.2,141.6c-0.1,0-0.1,0-0.2,0c0,0-0.1-0.1-0.1-0.1c0,0,0-0.1,0-0.1c0-0.1,0-0.1,0-0.2 c0-0.1,0.1-0.1,0.1-0.2c0-0.1,0.1-0.1,0.1-0.1c0.1,0,0.1-0.1,0.2-0.1c0.1,0,0.1,0,0.2,0l35.8,1.2c0.1,0,0.1,0,0.2,0 c0,0,0.1,0.1,0.1,0.1c0,0,0,0.1,0.1,0.2c0,0.1,0,0.1,0,0.2c0,0.1,0,0.1-0.1,0.2c0,0.1-0.1,0.1-0.1,0.1c-0.1,0-0.1,0.1-0.2,0.1 c-0.1,0-0.1,0-0.2,0L130.2,141.6L130.2,141.6z M117.7,146.4l2.1-6.8l6.3,0.2l-2.1,6.8L117.7,146.4L117.7,146.4z M132.5,134.1 c-0.1,0-0.1,0-0.2,0c0,0-0.1-0.1-0.1-0.1c0,0,0-0.1,0-0.1c0-0.1,0-0.1,0-0.2c0-0.1,0-0.1,0.1-0.2c0-0.1,0.1-0.1,0.1-0.1 c0.1,0,0.1-0.1,0.2-0.1c0.1,0,0.1,0,0.2,0l35.7,1c0.1,0,0.1,0,0.2,0c0,0,0.1,0.1,0.1,0.1c0,0,0,0.1,0.1,0.2c0,0.1,0,0.1,0,0.2 c0,0.1,0,0.1-0.1,0.2c0,0.1-0.1,0.1-0.1,0.1c-0.1,0-0.1,0.1-0.2,0.1c-0.1,0-0.1,0-0.2,0L132.5,134.1L132.5,134.1z M133.9,129.6 c-0.1,0-0.1,0-0.2,0c0,0-0.1-0.1-0.1-0.1c0,0,0-0.1,0-0.1c0-0.1,0-0.1,0-0.2c0-0.1,0.1-0.1,0.1-0.2c0-0.1,0.1-0.1,0.1-0.1 c0.1,0,0.1-0.1,0.2-0.1c0.1,0,0.1,0,0.2,0l35.6,0.8c0.1,0,0.1,0,0.2,0c0,0,0.1,0.1,0.1,0.1c0,0,0,0.1,0.1,0.2c0,0.1,0,0.1,0,0.2 c0,0.1,0,0.1-0.1,0.2c0,0.1-0.1,0.1-0.1,0.1c-0.1,0-0.1,0.1-0.2,0.1c-0.1,0-0.1,0-0.2,0L133.9,129.6L133.9,129.6z M121.5,134.4 l2.1-6.7l6.3,0.1l-2.1,6.7L121.5,134.4L121.5,134.4z M136.2,122.1c-0.1,0-0.1,0-0.2,0c0,0-0.1-0.1-0.1-0.1c0,0,0-0.1,0-0.1 c0-0.1,0-0.1,0-0.2c0-0.1,0-0.1,0.1-0.2c0-0.1,0.1-0.1,0.1-0.1c0.1,0,0.1-0.1,0.2-0.1c0.1,0,0.1,0,0.2,0l35.5,0.6 c0.1,0,0.1,0,0.2,0c0,0,0.1,0.1,0.1,0.1c0,0,0,0.1,0.1,0.1c0,0.1,0,0.1,0,0.2c0,0.1,0,0.1-0.1,0.2c0,0.1-0.1,0.1-0.1,0.1 c-0.1,0-0.1,0.1-0.2,0.1c-0.1,0-0.1,0-0.2,0L136.2,122.1L136.2,122.1z M137.6,117.7c-0.1,0-0.1,0-0.2,0c0,0-0.1-0.1-0.1-0.1 c0,0,0-0.1,0-0.1c0-0.1,0-0.1,0-0.2c0-0.1,0-0.1,0.1-0.2c0-0.1,0.1-0.1,0.1-0.1c0.1,0,0.1-0.1,0.2-0.1c0.1,0,0.1,0,0.2,0l35.4,0.5 c0.1,0,0.1,0,0.2,0c0,0,0.1,0.1,0.1,0.1c0,0,0,0.1,0.1,0.1c0,0.1,0,0.1,0,0.2c0,0.1,0,0.1-0.1,0.2c0,0.1-0.1,0.1-0.1,0.1 c-0.1,0-0.1,0.1-0.2,0.1c-0.1,0-0.1,0-0.2,0L137.6,117.7L137.6,117.7z M125.3,122.6l2.1-6.5l6.2,0.1l-2.1,6.6L125.3,122.6 L125.3,122.6z M185.1,131.7c0.6-2.2,1.6-4.3,3-6.2c1.3-1.9,3-3.6,4.8-5c1.8-1.4,3.9-2.6,6-3.4c2.1-0.8,4.4-1.2,6.6-1.2l-4.3,16.3 l16.7,0.4c-0.3,1.1-0.7,2.2-1.1,3.2c-0.5,1-1,2-1.7,3c-0.6,1-1.4,1.9-2.2,2.7c-0.8,0.9-1.6,1.6-2.6,2.4l5.2,7.3 c0.3-0.2,0.6-0.4,0.9-0.5c0.3-0.1,0.7-0.3,1-0.4c0.3-0.1,0.7-0.2,1-0.2c0.3,0,0.7-0.1,1,0c0.8,0,1.6,0.2,2.2,0.6 c0.6,0.3,1.2,0.8,1.6,1.4c0.4,0.6,0.7,1.2,0.8,2c0.1,0.7,0.1,1.5-0.1,2.4c-0.2,0.8-0.6,1.6-1,2.3c-0.5,0.7-1.1,1.3-1.8,1.9 c-0.7,0.5-1.4,0.9-2.2,1.2c-0.8,0.3-1.6,0.4-2.5,0.4c-0.8,0-1.6-0.2-2.2-0.6c-0.6-0.3-1.2-0.8-1.6-1.4c-0.4-0.6-0.7-1.2-0.8-2 c-0.1-0.7-0.1-1.5,0.1-2.3c0.1-0.4,0.2-0.7,0.4-1c0.1-0.3,0.3-0.7,0.5-1c0.2-0.3,0.4-0.6,0.6-0.9c0.2-0.3,0.5-0.5,0.8-0.8 l-5.2-7.3c-0.9,0.6-1.9,1.2-2.9,1.7c-1,0.5-2,0.9-3,1.3c-1,0.3-2.1,0.6-3.2,0.7c-1.1,0.2-2.1,0.2-3.2,0.2 c-2.3-0.1-4.3-0.6-6.1-1.6c-1.7-0.9-3.2-2.2-4.2-3.7c-1.1-1.5-1.8-3.3-2-5.3C184.3,136,184.5,133.9,185.1,131.7L185.1,131.7z M231.1,117.5c0-0.1,0-0.1,0-0.2c0-0.1,0-0.1,0-0.2c0-0.1,0-0.1,0-0.2c0-0.1,0-0.1,0-0.2c0.1-0.4,0.3-0.8,0.5-1.1 c0.2-0.3,0.5-0.7,0.9-0.9c0.3-0.3,0.7-0.5,1.1-0.6c0.4-0.1,0.8-0.2,1.2-0.2c0.4,0,0.8,0.1,1.1,0.2c0.3,0.2,0.6,0.4,0.8,0.6 c0.2,0.3,0.4,0.6,0.4,0.9c0.1,0.4,0.1,0.7,0,1.1c-0.1,0.4-0.3,0.8-0.5,1.1c-0.2,0.3-0.5,0.7-0.9,0.9c-0.3,0.3-0.7,0.5-1.1,0.6 c-0.4,0.1-0.8,0.2-1.2,0.2c-0.2,0-0.5,0-0.7-0.1c-0.2-0.1-0.4-0.1-0.6-0.2c-0.2-0.1-0.3-0.2-0.5-0.3c-0.1-0.1-0.3-0.3-0.4-0.4 l-12.9,5.5c0.1,0.4,0.2,0.9,0.2,1.4c0,0.5,0.1,1,0.1,1.5c0,0.5-0.1,1-0.1,1.5c-0.1,0.5-0.2,1-0.3,1.6l0,0.1l-14.1-0.3l3.6-13.7 l0.1,0c1.3,0,2.5,0.2,3.5,0.5c1.1,0.3,2.1,0.8,3,1.4c0.9,0.6,1.6,1.3,2.3,2.2c0.6,0.8,1.1,1.8,1.5,2.8L231.1,117.5L231.1,117.5z M117.3,99.7c-0.1,0-0.2,0-0.2-0.1c-0.1,0-0.1-0.1-0.2-0.1c0-0.1-0.1-0.1-0.1-0.2c0-0.1,0-0.2,0-0.3c0-0.1,0.1-0.2,0.1-0.3 c0.1-0.1,0.1-0.2,0.2-0.2c0.1-0.1,0.2-0.1,0.3-0.1c0.1,0,0.2-0.1,0.3-0.1l37.4-0.1c0.1,0,0.2,0,0.3,0.1c0.1,0,0.1,0.1,0.2,0.2 c0,0.1,0.1,0.1,0.1,0.2c0,0.1,0,0.2,0,0.3c0,0.1-0.1,0.2-0.1,0.3c-0.1,0.1-0.1,0.2-0.2,0.2c-0.1,0.1-0.2,0.1-0.3,0.2 c-0.1,0-0.2,0.1-0.3,0.1L117.3,99.7L117.3,99.7z M205.7,99.6c-0.1,0-0.2,0-0.3-0.1c-0.1,0-0.1-0.1-0.2-0.2 c-0.1-0.1-0.1-0.1-0.1-0.2c0-0.1,0-0.2,0-0.3c0-0.1,0.1-0.2,0.1-0.3c0.1-0.1,0.1-0.2,0.2-0.2c0.1-0.1,0.2-0.1,0.3-0.2 c0.1,0,0.2-0.1,0.3-0.1L234,98c0.1,0,0.2,0,0.3,0.1c0.1,0,0.2,0.1,0.2,0.2c0.1,0.1,0.1,0.1,0.1,0.2c0,0.1,0,0.2,0,0.3 c0,0.1-0.1,0.2-0.1,0.3c-0.1,0.1-0.1,0.2-0.2,0.2c-0.1,0.1-0.2,0.1-0.3,0.2c-0.1,0-0.2,0.1-0.3,0.1L205.7,99.6L205.7,99.6z M118.9,94.9c-0.1,0-0.2,0-0.2-0.1c-0.1,0-0.1-0.1-0.2-0.1c0-0.1-0.1-0.1-0.1-0.2c0-0.1,0-0.2,0-0.3c0-0.1,0.1-0.2,0.1-0.3 c0.1-0.1,0.1-0.2,0.2-0.2c0.1-0.1,0.2-0.1,0.3-0.1c0.1,0,0.2-0.1,0.3-0.1l37.3-0.3c0.1,0,0.2,0,0.3,0.1c0.1,0,0.1,0.1,0.2,0.1 c0,0.1,0.1,0.1,0.1,0.2c0,0.1,0,0.2,0,0.3c0,0.1-0.1,0.2-0.1,0.3c-0.1,0.1-0.1,0.2-0.2,0.2c-0.1,0.1-0.2,0.1-0.3,0.2 c-0.1,0-0.2,0.1-0.3,0.1L118.9,94.9L118.9,94.9z M207.1,94.4c-0.1,0-0.2,0-0.3-0.1c-0.1,0-0.1-0.1-0.2-0.2 c-0.1-0.1-0.1-0.1-0.1-0.2c0-0.1,0-0.2,0-0.3c0-0.1,0.1-0.2,0.1-0.3c0.1-0.1,0.1-0.2,0.2-0.2c0.1-0.1,0.2-0.1,0.3-0.2 c0.1,0,0.2-0.1,0.3-0.1l27.8-0.2c0.1,0,0.2,0,0.3,0.1c0.1,0,0.2,0.1,0.2,0.2c0.1,0.1,0.1,0.1,0.1,0.2c0,0.1,0,0.2,0,0.3 c0,0.1-0.1,0.2-0.1,0.3c-0.1,0.1-0.1,0.2-0.2,0.2c-0.1,0.1-0.2,0.1-0.3,0.2c-0.1,0-0.2,0.1-0.3,0.1L207.1,94.4L207.1,94.4z M120.4,90.2c-0.1,0-0.2,0-0.2-0.1c-0.1,0-0.1-0.1-0.2-0.1c0-0.1-0.1-0.1-0.1-0.2c0-0.1,0-0.2,0-0.3c0-0.1,0.1-0.2,0.1-0.3 c0.1-0.1,0.1-0.2,0.2-0.2c0.1-0.1,0.2-0.1,0.3-0.1c0.1,0,0.2-0.1,0.3-0.1l37.2-0.4c0.1,0,0.2,0,0.3,0.1c0.1,0,0.1,0.1,0.2,0.1 c0,0.1,0.1,0.1,0.1,0.2c0,0.1,0,0.2,0,0.3c0,0.1-0.1,0.2-0.1,0.3c-0.1,0.1-0.1,0.2-0.2,0.2c-0.1,0.1-0.2,0.1-0.3,0.2 c-0.1,0-0.2,0.1-0.3,0.1L120.4,90.2L120.4,90.2z M208.5,89.4c-0.1,0-0.2,0-0.3-0.1c-0.1,0-0.1-0.1-0.2-0.2 c-0.1-0.1-0.1-0.1-0.1-0.2c0-0.1,0-0.2,0-0.3c0-0.1,0.1-0.2,0.1-0.3c0.1-0.1,0.1-0.2,0.2-0.2c0.1-0.1,0.2-0.1,0.3-0.2 c0.1,0,0.2-0.1,0.3-0.1l27.7-0.3c0.1,0,0.2,0,0.3,0.1c0.1,0,0.2,0.1,0.2,0.2c0.1,0.1,0.1,0.1,0.1,0.2c0,0.1,0,0.2,0,0.3 c0,0.1-0.1,0.2-0.1,0.3c-0.1,0.1-0.1,0.2-0.2,0.2c-0.1,0.1-0.2,0.1-0.3,0.2c-0.1,0-0.2,0.1-0.3,0.1L208.5,89.4L208.5,89.4z M122,85.4c-0.1,0-0.2,0-0.2,0c-0.1,0-0.1-0.1-0.2-0.1c0-0.1-0.1-0.1-0.1-0.2c0-0.1,0-0.2,0-0.3c0-0.1,0.1-0.2,0.1-0.3 c0.1-0.1,0.1-0.2,0.2-0.2c0.1-0.1,0.2-0.1,0.3-0.1c0.1,0,0.2-0.1,0.3-0.1l37.2-0.6c0.1,0,0.2,0,0.3,0.1c0.1,0,0.1,0.1,0.2,0.1 c0,0.1,0.1,0.1,0.1,0.2c0,0.1,0,0.2,0,0.3c0,0.1-0.1,0.2-0.1,0.3c-0.1,0.1-0.1,0.2-0.2,0.2c-0.1,0.1-0.2,0.1-0.3,0.2 c-0.1,0-0.2,0.1-0.3,0.1L122,85.4L122,85.4z M209.8,84.2c-0.1,0-0.2,0-0.3-0.1c-0.1,0-0.1-0.1-0.2-0.2c-0.1-0.1-0.1-0.1-0.1-0.2 c0-0.1,0-0.2,0-0.3c0-0.1,0.1-0.2,0.1-0.3c0.1-0.1,0.1-0.2,0.2-0.2c0.1-0.1,0.2-0.1,0.3-0.2c0.1,0,0.2-0.1,0.3-0.1l27.7-0.4 c0.1,0,0.2,0,0.3,0.1c0.1,0,0.2,0.1,0.2,0.2c0.1,0.1,0.1,0.1,0.1,0.2c0,0.1,0,0.2,0,0.3c0,0.1-0.1,0.2-0.1,0.3 c-0.1,0.1-0.1,0.2-0.2,0.2c-0.1,0.1-0.2,0.1-0.3,0.2c-0.1,0-0.2,0.1-0.3,0.1L209.8,84.2L209.8,84.2z M151.6,78.3l2.6-8.4l9.4-0.2 l-2.6,8.5L151.6,78.3L151.6,78.3z M137.6,78.6l4.5-14.3l9.2-0.3l-4.5,14.4L137.6,78.6L137.6,78.6z M182.4,78.1 c-1.3,0-2.5-0.2-3.5-0.7c-1-0.5-1.8-1.2-2.4-2c-0.6-0.9-1-1.9-1.1-3.1c-0.1-1.1,0-2.4,0.4-3.7c0.4-1.3,1-2.6,1.8-3.8 c0.8-1.2,1.8-2.2,2.9-3.1c1.1-0.9,2.3-1.6,3.6-2.2c1.3-0.5,2.6-0.8,3.9-0.9c1.3,0,2.5,0.2,3.5,0.6c1,0.5,1.9,1.1,2.5,2 c0.6,0.8,1.1,1.9,1.2,3c0.2,1.2,0.1,2.4-0.3,3.8c-0.4,1.4-1,2.7-1.8,3.8c-0.8,1.2-1.8,2.3-3,3.2c-1.1,0.9-2.4,1.7-3.7,2.2 C185.1,77.8,183.8,78.1,182.4,78.1L182.4,78.1z M131.3,57l8.9-0.3l-7.1,22l-9,0.2L131.3,57L131.3,57z M211.7,77.5l6.5-24.4l27.4-1 l-6.1,24.9L211.7,77.5L211.7,77.5z M265.4,39.8l-143.7,6.8c-1,0-2,0.3-2.9,0.7c-1,0.4-1.9,1-2.8,1.6c-0.9,0.7-1.6,1.5-2.3,2.3 c-0.7,0.9-1.2,1.8-1.5,2.8l-33.8,98.4c-0.4,1.1-0.6,2.2-0.5,3.2c0,1,0.3,1.9,0.7,2.7c0.4,0.8,1,1.4,1.7,1.9 c0.7,0.5,1.6,0.8,2.7,0.8l152.3,8c1.3,0.1,2.7-0.1,3.9-0.6c1.3-0.4,2.5-1.1,3.6-1.9c1.1-0.8,2-1.8,2.8-2.9 c0.8-1.1,1.3-2.4,1.6-3.7l25.5-112.6c0.3-1.1,0.2-2.2,0-3.1c-0.2-0.9-0.7-1.8-1.4-2.5c-0.7-0.7-1.5-1.2-2.5-1.6 C267.8,39.9,266.7,39.7,265.4,39.8L265.4,39.8z"/><path class="st20" d="M133.6 116.1L127.4 116 125.3 122.6 131.5 122.7 133.6 116.1z"/><path class="st16" d="M129.9 127.9L123.6 127.8 121.5 134.4 127.8 134.6 129.9 127.9z"/><path class="st16" d="M126.2 139.9L119.9 139.6 117.7 146.4 124 146.7 126.2 139.9z"/><path class="st9" d="M173.3,117.3l-35.4-0.5c-0.1,0-0.1,0-0.2,0c-0.1,0-0.1,0.1-0.2,0.1c-0.1,0-0.1,0.1-0.1,0.1 c0,0.1-0.1,0.1-0.1,0.2c0,0.1,0,0.1,0,0.2c0,0.1,0,0.1,0,0.1c0,0,0.1,0.1,0.1,0.1c0,0,0.1,0,0.2,0l35.4,0.5c0.1,0,0.1,0,0.2,0 c0.1,0,0.1-0.1,0.2-0.1c0.1,0,0.1-0.1,0.1-0.1c0-0.1,0.1-0.1,0.1-0.2c0-0.1,0-0.1,0-0.2c0-0.1,0-0.1-0.1-0.1c0,0-0.1-0.1-0.1-0.1 C173.4,117.3,173.4,117.3,173.3,117.3L173.3,117.3z"/><path class="st9" d="M172,121.8l-35.5-0.6c-0.1,0-0.1,0-0.2,0c-0.1,0-0.1,0.1-0.2,0.1c-0.1,0-0.1,0.1-0.1,0.1 c0,0.1-0.1,0.1-0.1,0.2c0,0.1,0,0.1,0,0.2c0,0.1,0,0.1,0,0.1c0,0,0.1,0.1,0.1,0.1c0,0,0.1,0,0.2,0l35.5,0.6c0.1,0,0.1,0,0.2,0 c0.1,0,0.1-0.1,0.2-0.1c0.1,0,0.1-0.1,0.1-0.1c0-0.1,0.1-0.1,0.1-0.2c0-0.1,0-0.1,0-0.2c0-0.1,0-0.1-0.1-0.1c0,0-0.1-0.1-0.1-0.1 C172.1,121.9,172.1,121.8,172,121.8L172,121.8z"/><path class="st9" d="M169.8,129.6l-35.6-0.8c-0.1,0-0.1,0-0.2,0c-0.1,0-0.1,0.1-0.2,0.1c-0.1,0-0.1,0.1-0.1,0.1 c0,0.1-0.1,0.1-0.1,0.2c0,0.1,0,0.1,0,0.2c0,0.1,0,0.1,0,0.1c0,0,0.1,0.1,0.1,0.1c0,0,0.1,0,0.2,0l35.6,0.8c0.1,0,0.1,0,0.2,0 c0.1,0,0.1-0.1,0.2-0.1c0.1,0,0.1-0.1,0.1-0.1c0-0.1,0.1-0.1,0.1-0.2c0-0.1,0-0.1,0-0.2c0-0.1,0-0.1-0.1-0.2c0,0-0.1-0.1-0.1-0.1 C169.9,129.6,169.9,129.6,169.8,129.6L169.8,129.6z"/><path class="st9" d="M168.5,134.2l-35.7-1c-0.1,0-0.1,0-0.2,0c-0.1,0-0.1,0.1-0.2,0.1c-0.1,0-0.1,0.1-0.1,0.1 c0,0.1-0.1,0.1-0.1,0.2c0,0.1,0,0.1,0,0.2c0,0.1,0,0.1,0,0.1c0,0,0.1,0.1,0.1,0.1c0,0,0.1,0,0.2,0l35.7,1c0.1,0,0.1,0,0.2,0 c0.1,0,0.1-0.1,0.2-0.1c0.1,0,0.1-0.1,0.1-0.1c0-0.1,0.1-0.1,0.1-0.2c0-0.1,0-0.1,0-0.2c0-0.1,0-0.1-0.1-0.2c0,0-0.1-0.1-0.1-0.1 C168.6,134.2,168.6,134.2,168.5,134.2L168.5,134.2z"/><path class="st9" d="M166.3,141.9l-35.8-1.2c-0.1,0-0.1,0-0.2,0c-0.1,0-0.1,0.1-0.2,0.1c-0.1,0-0.1,0.1-0.1,0.1 c0,0.1-0.1,0.1-0.1,0.2c0,0.1,0,0.1,0,0.2c0,0.1,0,0.1,0,0.1c0,0,0.1,0.1,0.1,0.1c0,0,0.1,0,0.2,0l35.8,1.2c0.1,0,0.1,0,0.2,0 c0.1,0,0.1-0.1,0.2-0.1c0.1,0,0.1-0.1,0.1-0.1c0-0.1,0.1-0.1,0.1-0.2c0-0.1,0-0.1,0-0.2c0-0.1,0-0.1-0.1-0.2c0,0-0.1-0.1-0.1-0.1 C166.4,141.9,166.4,141.9,166.3,141.9L166.3,141.9z"/><path class="st9" d="M165,146.6l-35.9-1.3c-0.1,0-0.1,0-0.2,0c-0.1,0-0.1,0.1-0.2,0.1c-0.1,0-0.1,0.1-0.1,0.1 c0,0.1-0.1,0.1-0.1,0.2c0,0.1,0,0.1,0,0.2c0,0.1,0,0.1,0,0.2c0,0,0.1,0.1,0.1,0.1c0,0,0.1,0,0.2,0l35.9,1.4c0.1,0,0.1,0,0.2,0 c0.1,0,0.1-0.1,0.2-0.1c0.1,0,0.1-0.1,0.1-0.1c0-0.1,0.1-0.1,0.1-0.2c0-0.1,0-0.1,0-0.2c0-0.1,0-0.1-0.1-0.2c0,0-0.1-0.1-0.1-0.1 C165.1,146.6,165,146.6,165,146.6L165,146.6z"/><path class="st21" d="M140.2 56.7L131.3 57 124.1 78.9 133.2 78.7 140.2 56.7z"/><path class="st20" d="M151.4 64L142.2 64.3 137.6 78.6 146.9 78.4 151.4 64z"/><path class="st22" d="M163.7 69.7L154.2 69.9 151.6 78.3 161.1 78.2 163.7 69.7z"/><path class="st22" d="M231.1,117.5l-12.9,5.5c0,0.1,0.1,0.2,0.1,0.3c0,0.1,0.1,0.2,0.1,0.3c0,0.1,0.1,0.2,0.1,0.3 c0,0.1,0,0.2,0.1,0.3l12.9-5.5c0-0.1-0.1-0.2-0.1-0.3c0-0.1-0.1-0.2-0.1-0.3c0-0.1,0-0.2-0.1-0.3 C231.1,117.7,231.1,117.6,231.1,117.5L231.1,117.5z"/><path class="st21" d="M210.4,143.9c-0.1,0.1-0.2,0.1-0.3,0.2c-0.1,0.1-0.2,0.1-0.3,0.2c-0.1,0.1-0.2,0.1-0.3,0.2 c-0.1,0.1-0.2,0.1-0.3,0.2l5.2,7.3c0.1-0.1,0.2-0.2,0.3-0.2c0.1-0.1,0.2-0.2,0.3-0.2c0.1-0.1,0.2-0.1,0.3-0.2 c0.1-0.1,0.2-0.1,0.3-0.2L210.4,143.9L210.4,143.9z"/><path class="st21" d="M205.5,115.9c-2.2,0-4.5,0.4-6.6,1.2c-2.1,0.8-4.2,1.9-6,3.4c-1.8,1.4-3.5,3.1-4.8,5c-1.3,1.9-2.3,4-3,6.2 c-0.6,2.2-0.7,4.4-0.5,6.4c0.3,2,1,3.8,2,5.3c1.1,1.5,2.5,2.8,4.2,3.7c1.7,0.9,3.8,1.5,6.1,1.6c2.3,0.1,4.6-0.3,6.8-1.1 c2.2-0.8,4.3-1.9,6.2-3.4c1.9-1.5,3.6-3.2,5-5.2c1.4-2,2.4-4.1,3-6.4l-16.7-0.4L205.5,115.9L205.5,115.9z"/><path class="st22" d="M207.9,116.1L207.9,116.1l-3.7,13.7l14.1,0.3l0-0.1c0.1-0.5,0.2-1,0.3-1.6c0.1-0.5,0.1-1,0.1-1.5 c0-0.5,0-1-0.1-1.5c0-0.5-0.1-0.9-0.2-1.4c0-0.1,0-0.2-0.1-0.3c0-0.1,0-0.2-0.1-0.3c0-0.1-0.1-0.2-0.1-0.3c0-0.1-0.1-0.2-0.1-0.3 c-0.4-1-0.9-2-1.5-2.8c-0.6-0.8-1.4-1.6-2.3-2.2c-0.9-0.6-1.9-1.1-3-1.4C210.4,116.3,209.2,116.1,207.9,116.1L207.9,116.1z"/><path class="st21" d="M219.5,150c-0.3,0-0.7,0-1,0c-0.3,0-0.7,0.1-1,0.2c-0.3,0.1-0.7,0.2-1,0.4c-0.3,0.1-0.6,0.3-0.9,0.5 c-0.1,0.1-0.2,0.1-0.3,0.2c-0.1,0.1-0.2,0.1-0.3,0.2c-0.1,0.1-0.2,0.1-0.3,0.2c-0.1,0.1-0.2,0.2-0.3,0.2c-0.3,0.2-0.5,0.5-0.8,0.8 c-0.2,0.3-0.5,0.6-0.6,0.9c-0.2,0.3-0.4,0.6-0.5,1c-0.1,0.3-0.3,0.7-0.4,1c-0.2,0.8-0.2,1.6-0.1,2.3c0.1,0.7,0.4,1.4,0.8,2 c0.4,0.6,0.9,1,1.6,1.4c0.6,0.3,1.4,0.5,2.2,0.6c0.8,0,1.7-0.1,2.5-0.4c0.8-0.3,1.6-0.7,2.2-1.2c0.7-0.5,1.3-1.2,1.8-1.9 c0.5-0.7,0.8-1.5,1-2.3c0.2-0.8,0.2-1.6,0.1-2.4c-0.1-0.7-0.4-1.4-0.8-2c-0.4-0.6-1-1-1.6-1.4C221.1,150.3,220.4,150.1,219.5,150 L219.5,150z"/><path class="st22" d="M234.9,113.9c-0.4,0-0.8,0.1-1.2,0.2c-0.4,0.1-0.8,0.4-1.1,0.6c-0.3,0.3-0.6,0.6-0.9,0.9 c-0.2,0.3-0.4,0.7-0.5,1.1c0,0.1,0,0.1,0,0.2c0,0.1,0,0.1,0,0.2c0,0.1,0,0.1,0,0.2c0,0.1,0,0.1,0,0.2c0,0.1,0,0.2,0,0.3 c0,0.1,0,0.2,0.1,0.3c0,0.1,0.1,0.2,0.1,0.3c0,0.1,0.1,0.2,0.1,0.3c0.1,0.2,0.2,0.3,0.4,0.4c0.1,0.1,0.3,0.2,0.5,0.3 c0.2,0.1,0.4,0.2,0.6,0.2c0.2,0.1,0.4,0.1,0.7,0.1c0.4,0,0.8-0.1,1.2-0.2c0.4-0.1,0.8-0.4,1.1-0.6c0.3-0.3,0.6-0.6,0.9-0.9 c0.2-0.3,0.4-0.7,0.5-1.1c0.1-0.4,0.1-0.8,0-1.1c-0.1-0.4-0.2-0.7-0.4-0.9c-0.2-0.3-0.5-0.5-0.8-0.6 C235.7,114,235.3,113.9,234.9,113.9L234.9,113.9z"/><path class="st22" d="M182.9,76.5c-1.1,0-2.1-0.2-2.9-0.6c-0.8-0.4-1.5-1-2-1.7c-0.5-0.7-0.8-1.6-0.9-2.6c-0.1-1,0-2,0.3-3.1 c0.3-1.1,0.9-2.2,1.5-3.2c0.7-1,1.5-1.9,2.4-2.6c0.9-0.8,2-1.4,3-1.8c1.1-0.4,2.2-0.7,3.3-0.7c1.1,0,2.1,0.2,2.9,0.5 c0.8,0.4,1.5,0.9,2.1,1.7c0.5,0.7,0.9,1.6,1,2.5c0.1,1,0.1,2-0.3,3.2c-0.3,1.1-0.8,2.2-1.5,3.2c-0.7,1-1.5,1.9-2.5,2.7 c-0.9,0.8-2,1.4-3.1,1.8C185.1,76.2,184,76.5,182.9,76.5L182.9,76.5z M188,58.6c-1.3,0-2.7,0.4-3.9,0.9c-1.3,0.5-2.5,1.3-3.6,2.2 c-1.1,0.9-2.1,2-2.9,3.1c-0.8,1.2-1.5,2.4-1.8,3.8c-0.4,1.3-0.5,2.6-0.4,3.7c0.1,1.2,0.5,2.2,1.1,3.1c0.6,0.9,1.4,1.6,2.4,2 c1,0.5,2.2,0.7,3.5,0.7c1.3,0,2.7-0.3,4-0.9c1.3-0.5,2.6-1.3,3.7-2.2c1.1-0.9,2.2-2,3-3.2c0.8-1.2,1.5-2.5,1.8-3.8 c0.4-1.4,0.5-2.6,0.3-3.8c-0.2-1.1-0.6-2.2-1.2-3c-0.6-0.8-1.5-1.5-2.5-2C190.5,58.8,189.3,58.6,188,58.6L188,58.6z"/><path class="st22" d="M186.7,63c-0.7,0-1.4,0.2-2.1,0.5c-0.7,0.3-1.4,0.7-2,1.2c-0.6,0.5-1.1,1.1-1.6,1.7c-0.4,0.6-0.8,1.3-1,2 c-0.2,0.7-0.3,1.4-0.2,2c0.1,0.6,0.3,1.2,0.6,1.6c0.3,0.5,0.8,0.8,1.3,1.1c0.5,0.3,1.2,0.4,1.9,0.4c0.7,0,1.4-0.2,2.1-0.5 c0.7-0.3,1.4-0.7,2-1.2c0.6-0.5,1.2-1.1,1.6-1.7c0.4-0.6,0.8-1.3,1-2.1c0.2-0.7,0.3-1.4,0.2-2c-0.1-0.6-0.3-1.2-0.6-1.6 c-0.3-0.5-0.8-0.8-1.3-1.1C188.1,63.2,187.4,63,186.7,63L186.7,63z"/><path class="st23" d="M237.9,82.4l-27.7,0.4c-0.1,0-0.2,0-0.3,0.1c-0.1,0-0.2,0.1-0.3,0.2c-0.1,0.1-0.2,0.1-0.2,0.2 c-0.1,0.1-0.1,0.2-0.1,0.3c0,0.1,0,0.2,0,0.3c0,0.1,0,0.2,0.1,0.2c0.1,0.1,0.1,0.1,0.2,0.2c0.1,0,0.2,0.1,0.3,0.1l27.7-0.4 c0.1,0,0.2,0,0.3-0.1c0.1,0,0.2-0.1,0.3-0.2c0.1-0.1,0.2-0.1,0.2-0.2c0.1-0.1,0.1-0.2,0.1-0.3c0-0.1,0-0.2,0-0.3 c0-0.1-0.1-0.2-0.1-0.2c-0.1-0.1-0.1-0.1-0.2-0.2C238.1,82.4,238,82.4,237.9,82.4L237.9,82.4z"/><path class="st23" d="M236.6,87.6l-27.7,0.3c-0.1,0-0.2,0-0.3,0.1c-0.1,0-0.2,0.1-0.3,0.2c-0.1,0.1-0.2,0.1-0.2,0.2 c-0.1,0.1-0.1,0.2-0.1,0.3c0,0.1,0,0.2,0,0.3c0,0.1,0,0.2,0.1,0.2c0,0.1,0.1,0.1,0.2,0.2c0.1,0,0.2,0.1,0.3,0.1l27.8-0.3 c0.1,0,0.2,0,0.3-0.1c0.1,0,0.2-0.1,0.3-0.2c0.1-0.1,0.2-0.1,0.2-0.2c0.1-0.1,0.1-0.2,0.1-0.3c0-0.1,0-0.2,0-0.3 c0-0.1-0.1-0.2-0.1-0.2c-0.1-0.1-0.1-0.1-0.2-0.2C236.8,87.6,236.7,87.6,236.6,87.6L236.6,87.6z"/><path class="st23" d="M235.3,92.7l-27.8,0.2c-0.1,0-0.2,0-0.3,0.1c-0.1,0-0.2,0.1-0.3,0.2c-0.1,0.1-0.2,0.1-0.2,0.2 c-0.1,0.1-0.1,0.2-0.1,0.3c0,0.1,0,0.2,0,0.3c0,0.1,0,0.2,0.1,0.2c0.1,0.1,0.1,0.1,0.2,0.2c0.1,0,0.2,0.1,0.3,0.1l27.8-0.2 c0.1,0,0.2,0,0.3-0.1c0.1,0,0.2-0.1,0.3-0.2c0.1-0.1,0.2-0.1,0.2-0.2c0.1-0.1,0.1-0.2,0.1-0.3c0-0.1,0-0.2,0-0.3 c0-0.1-0.1-0.2-0.1-0.2c-0.1-0.1-0.1-0.1-0.2-0.2C235.5,92.8,235.4,92.7,235.3,92.7L235.3,92.7z"/><path class="st23" d="M234,98l-27.9,0.1c-0.1,0-0.2,0-0.3,0.1c-0.1,0-0.2,0.1-0.3,0.2c-0.1,0.1-0.2,0.1-0.2,0.2 c-0.1,0.1-0.1,0.2-0.1,0.3c0,0.1,0,0.2,0,0.3c0,0.1,0,0.2,0.1,0.2c0.1,0.1,0.1,0.1,0.2,0.2c0.1,0,0.2,0.1,0.3,0.1l27.9,0 c0.1,0,0.2,0,0.3-0.1c0.1,0,0.2-0.1,0.3-0.2c0.1-0.1,0.2-0.2,0.2-0.2c0.1-0.1,0.1-0.2,0.1-0.3c0-0.1,0-0.2,0-0.3 c0-0.1-0.1-0.2-0.1-0.2c-0.1-0.1-0.1-0.1-0.2-0.2C234.2,98.1,234.1,98,234,98L234,98z"/><path class="st23" d="M159.6,83.5l-37.2,0.6c-0.1,0-0.2,0-0.3,0.1c-0.1,0-0.2,0.1-0.3,0.1c-0.1,0.1-0.1,0.1-0.2,0.2 c-0.1,0.1-0.1,0.2-0.1,0.3c0,0.1,0,0.2,0,0.3c0,0.1,0,0.2,0.1,0.2c0,0.1,0.1,0.1,0.2,0.1c0.1,0,0.1,0.1,0.2,0l37.2-0.5 c0.1,0,0.2,0,0.3-0.1c0.1,0,0.2-0.1,0.3-0.2c0.1-0.1,0.2-0.1,0.2-0.2c0.1-0.1,0.1-0.2,0.1-0.3c0-0.1,0-0.2,0-0.3 c0-0.1,0-0.2-0.1-0.2c0-0.1-0.1-0.1-0.2-0.1C159.8,83.6,159.7,83.5,159.6,83.5L159.6,83.5z"/><path class="st23" d="M158.1,88.4l-37.2,0.4c-0.1,0-0.2,0-0.3,0.1c-0.1,0-0.2,0.1-0.3,0.1c-0.1,0.1-0.2,0.1-0.2,0.2 c-0.1,0.1-0.1,0.2-0.1,0.3c0,0.1,0,0.2,0,0.3c0,0.1,0,0.2,0.1,0.2c0,0.1,0.1,0.1,0.2,0.1c0.1,0,0.1,0.1,0.2,0.1l37.3-0.4 c0.1,0,0.2,0,0.3-0.1c0.1,0,0.2-0.1,0.3-0.2c0.1-0.1,0.2-0.1,0.2-0.2c0.1-0.1,0.1-0.2,0.1-0.3c0-0.1,0-0.2,0-0.3 c0-0.1,0-0.2-0.1-0.2c0-0.1-0.1-0.1-0.2-0.1C158.3,88.5,158.2,88.4,158.1,88.4L158.1,88.4z"/><path class="st23" d="M156.6,93.3l-37.3,0.3c-0.1,0-0.2,0-0.3,0.1c-0.1,0-0.2,0.1-0.3,0.1c-0.1,0.1-0.2,0.1-0.2,0.2 c-0.1,0.1-0.1,0.2-0.1,0.3c0,0.1,0,0.2,0,0.3c0,0.1,0,0.2,0.1,0.2c0,0.1,0.1,0.1,0.2,0.1c0.1,0,0.1,0.1,0.2,0.1l37.3-0.2 c0.1,0,0.2,0,0.3-0.1c0.1,0,0.2-0.1,0.3-0.2c0.1-0.1,0.2-0.1,0.2-0.2c0.1-0.1,0.1-0.2,0.1-0.3c0-0.1,0-0.2,0-0.3 c0-0.1,0-0.2-0.1-0.2c0-0.1-0.1-0.1-0.2-0.1C156.8,93.3,156.7,93.3,156.6,93.3L156.6,93.3z"/><path class="st23" d="M155.1,98.3l-37.4,0.1c-0.1,0-0.2,0-0.3,0.1c-0.1,0-0.2,0.1-0.3,0.1c-0.1,0.1-0.2,0.1-0.2,0.2 c-0.1,0.1-0.1,0.2-0.1,0.3c0,0.1,0,0.2,0,0.3c0,0.1,0,0.2,0.1,0.2c0,0.1,0.1,0.1,0.2,0.1c0.1,0,0.1,0.1,0.2,0.1l37.4-0.1 c0.1,0,0.2,0,0.3-0.1c0.1,0,0.2-0.1,0.3-0.2c0.1-0.1,0.2-0.1,0.2-0.2c0.1-0.1,0.1-0.2,0.1-0.3c0-0.1,0-0.2,0-0.3 c0-0.1,0-0.2-0.1-0.2c0-0.1-0.1-0.1-0.2-0.2C155.3,98.3,155.2,98.3,155.1,98.3L155.1,98.3z"/><path class="st23" d="M245.6 52L218.1 53.1 211.7 77.5 239.5 76.9 245.6 52z"/><path class="st24" d="M104.4,86.5L104.4,86.5c-0.5,0.3-1.2,0-1.4-0.5l-4.8-11c-0.2-0.5,0-1.2,0.6-1.4l0,0c0.5-0.3,1.2,0,1.4,0.5 l4.8,11C105.1,85.6,104.9,86.2,104.4,86.5z"/><path d="M104.1,93.5c-0.4-7.2-5.5-11.5-5.5-11.5c-1.3-5.8-4.4-11.1-5.7-13c-0.3-0.4-0.4-0.6-0.4-0.6l-16.7,4.1 c0,0,9.7,15.8,9.4,16.7c-0.3,0.8-4.6,2-4.6,2s-6.2-6.6-9.4-3c-3.1,3.6,3,9,3,9l0.4,6.6l-3.5,1.4l0.4,5.7 c3.1,2.5,20.4,2.2,20.8,2.2c0.4,0,0.1-3.7,0.1-3.7s8.4,0.7,10.3-0.7C106.2,106.1,104.5,100.8,104.1,93.5z" fill="#f4af9f"/><path class="st26" d="M102.8,108.6c0.6-0.5,1-1,1.4-1.6c-14.3,2.4-16.3-16.7-16.3-16.7s-5-10.6-5-13.7c0-2.8,8.7-6.3,10.6-7 c-0.1-0.2-0.3-0.5-0.4-0.6c-0.3-0.4-0.4-0.6-0.4-0.6l-16.7,4.1c0,0,9.7,15.8,9.4,16.7c-0.3,0.8-4.6,2-4.6,2s-6.2-6.6-9.4-3 c-3.1,3.6,3,9,3,9l0.4,6.6l-3.5,1.4l0.4,5.7c0.5,0.4,1.4,0.7,2.6,1l10.3,0.5c1.2-3.7,6.3-3.6,6.3-3.6c0.8,0.2,1.5,0.4,2.2,0.6 C94.7,109.5,101.2,109.8,102.8,108.6z"/><g opacity=".72"><linearGradient id="SVGID_2_" gradientUnits="userSpaceOnUse" x1="70.375" y1="90.686" x2="104.856" y2="90.686"><stop offset="0" stop-color="#808181"/><stop offset="1" stop-color="#d6d7d7"/></linearGradient><path d="M104.1,93.5c-0.4-7.2-5.5-11.5-5.5-11.5c-1.3-5.8-4.4-11.1-5.7-13 c-0.3-0.4-0.4-0.6-0.4-0.6l-16.7,4.1c0,0,9.7,15.8,9.4,16.7c-0.3,0.8-4.6,2-4.6,2s-6.2-6.6-9.4-3c-3.1,3.6,3,9,3,9l0.4,6.6 l-3.5,1.4l0.4,5.7c3.1,2.5,20.4,2.2,20.8,2.2c0.4,0,0.1-3.7,0.1-3.7s8.4,0.7,10.3-0.7C106.2,106.1,104.5,100.8,104.1,93.5z" fill="url(#SVGID_2_)"/><linearGradient id="SVGID_4_" gradientUnits="userSpaceOnUse" x1="70.375" y1="90.337" x2="104.856" y2="90.337"><stop offset="0" stop-color="#808181"/><stop offset="1" stop-color="#d6d7d7"/></linearGradient><path d="M102.8,108.6c0.6-0.5,1-1,1.4-1.6c-14.3,2.4-16.3-16.7-16.3-16.7s-5-10.6-5-13.7 c0-2.8,8.7-6.3,10.6-7c-0.1-0.2-0.3-0.5-0.4-0.6c-0.3-0.4-0.4-0.6-0.4-0.6l-16.7,4.1c0,0,9.7,15.8,9.4,16.7c-0.3,0.8-4.6,2-4.6,2 s-6.2-6.6-9.4-3c-3.1,3.6,3,9,3,9l0.4,6.6l-3.5,1.4l0.4,5.7c0.5,0.4,1.4,0.7,2.6,1l10.3,0.5c1.2-3.7,6.3-3.6,6.3-3.6 c0.8,0.2,1.5,0.4,2.2,0.6C94.7,109.5,101.2,109.8,102.8,108.6z" fill="url(#SVGID_4_)"/></g><path class="st24" d="M75.5,98c0,0-7.4-6.3-4.2-9.8c3.1-3.6,9.4,3,9.4,3s4.3-1.2,4.6-2c0.3-0.8-5.4-10.6-4-14.1 c1.2-2.8,11.2-7.1,11.5-6.6c6.7-5.7,3.6-19.8,3.6-19.8c-3.5,8.1-22.5,9.9-32.8,13.4c-12.2,4.2-9.1,15.4-9.1,15.4 c-1.8,1.1-6.1,7.4,5,15c8,5.5,11.7,12.7,11.7,12.7s4-0.8,4.5-1.7C76.5,102,75.5,98,75.5,98z"/><path class="st24" d="M79.4,89.2l-0.6-1c0.4-0.3,14.3-5.6,22.6-8.7l0.4,1.1C93.1,83.9,80,88.8,79.4,89.2z"/><path d="M170.2,102c0,0,0-8.2,0.6-12.1c0.6-3.9,4.1-4.1,4.1-4.1s6.2-18.1,8.5-16.8c2.3,1.3-2.8,12.6-2.2,14.5 c0.6,1.9,11.4,5.1,11,12c-0.4,6.9-8,12-8,12L170.2,102z" fill="#ea989d"/><path class="st26" d="M175.1,85.1c-0.2,0.5-0.3,0.7-0.3,0.7s-3.6,0.2-4.1,4.1c-0.6,3.9-0.6,12.1-0.6,12.1l14.1,5.5 c0,0,5-3.4,7.1-8.4C179.4,96.2,175.6,90.5,175.1,85.1z"/><path class="st16" d="M188.4,107.8l2-3.2c-3.3-7.8-18-9.6-18-9.6l-2.4,3.5C173.3,98.8,183.6,100.5,188.4,107.8z"/><path class="st24" d="M188.4,107.8c-4.8-7.3-15.1-9-18.4-9.3c-0.7-0.1-1.1-0.1-1.1-0.1l-25.3,33.5c0,0-26.6-6.2-41.1-8.3 c-0.8-0.1-1.6-0.2-2.4-0.3c0,0-20.9-0.3-21.3-0.3c-0.6-0.1-1.2-0.1-1.9-0.2c-0.5,0-1-0.1-1.5-0.2c-0.3,0-0.7-0.1-1-0.1 c-0.5-0.1-0.9-0.1-1.4-0.2c-0.4-0.1-0.8-0.1-1.1-0.2c-0.4-0.1-0.8-0.1-1.2-0.2c-0.4-0.1-0.8-0.1-1.1-0.2c-0.4-0.1-0.7-0.1-1-0.2 c-0.2,0-0.3-0.1-0.5-0.1c-1-0.2-2-0.4-2.9-0.6c-0.2-0.1-0.4-0.1-0.6-0.2c-0.2-0.1-0.5-0.1-0.7-0.2c-0.2-0.1-0.4-0.1-0.6-0.2 c-0.7-0.2-1.3-0.4-1.9-0.7c0,0-36.7,2.6-34.4,36.2l14.2,0.3c0,0,0.9,27.2,1.6,41.9c0.5,9.2,0,14.3-4.7,26.5 c5.1,5.1,13.7,8.1,19.5,9.4c14.7,3.3,28.9,2,43.6-0.8c2.4-0.5,4.8-0.9,7.2-1.5c-0.7-10.7-1.9-29.9-1.1-36.1c1-8.7,5.8-24,5.1-33 c15,0,34-0.2,39.5-1.7c9.5-2.5,37.5-51.7,37.5-51.7C188.9,108.7,188.6,108.2,188.4,107.8z"/><path d="M100.3,122.8l-5.9-9.3l-0.9-1.4l-29.5-2.5c-2.9,5.9-2.6,10.6-2.6,10.6c0.6,0.2,1.3,0.4,2,0.6 c0.2,0.1,0.4,0.1,0.7,0.2c0.2,0.1,0.5,0.1,0.7,0.2c0.2,0,0.4,0.1,0.6,0.1c0.9,0.2,1.9,0.4,3,0.6c0.2,0,0.3,0.1,0.5,0.1 c0.3,0.1,0.7,0.1,1,0.2c0.4,0.1,0.8,0.1,1.1,0.2c0.4,0.1,0.8,0.1,1.2,0.2c0.4,0,0.8,0.1,1.1,0.1c0.5,0.1,0.9,0.1,1.4,0.1 c0.3,0,0.7,0.1,1,0.1c0.5,0,1,0.1,1.5,0.1c0.6,0,1.2,0.1,1.9,0.1c0.5,0,1,0.1,1.4,0.1c2.2,0.1,4.4,0.2,6.4,0.3c0.4,0,0.9,0,1.3,0 c4.2,0.1,7.8,0.1,10,0c0.8,0,1.4,0,1.8,0c0.5,0,0.7,0,0.7,0L100.3,122.8z" fill="#f4f6f8"/><path class="st16" d="M98,123.1c-1-0.1-2-0.3-3-0.4c-2.3-0.4-4.5-0.8-6.5-1.2c-1.5-0.3-2.9-0.7-4.3-1.1 c-14.6-4.2-20.4-10.8-20.4-10.8c-2.9,5.9-2.6,10.6-2.6,10.6c0.6,0.2,1.3,0.4,2,0.6c0.2,0.1,0.4,0.1,0.7,0.2 c0.2,0.1,0.5,0.1,0.7,0.2c0.2,0,0.4,0.1,0.6,0.1c0.9,0.2,1.9,0.4,3,0.6c0.2,0,0.3,0.1,0.5,0.1c0.3,0.1,0.7,0.1,1,0.2 c0.4,0.1,0.8,0.1,1.1,0.2c0.4,0.1,0.8,0.1,1.2,0.1c0.4,0,0.8,0.1,1.1,0.1c0.5,0,0.9,0.1,1.4,0.1c0.3,0,0.7,0.1,1,0.1 c0.5,0,1,0.1,1.5,0.1c0.6,0,1.2,0.1,1.9,0.1c0.5,0,1,0.1,1.4,0.1c2.2,0.1,4.4,0.2,6.4,0.3c0.4,0,0.9,0,1.3,0c4.2,0.1,7.8,0.1,10,0 c0.8,0,1.4,0,1.8,0c0.5,0,0.7,0,0.7,0C99.8,123.3,98.9,123.2,98,123.1z"/><path d="M112.1,162.5c-0.4,0-21.7-1.6-28.1-4.2c0,0,19.1,10.1,28,9.5C112.1,165.9,112.2,164.1,112.1,162.5z" fill="#666"/><path class="st22" d="M195.2,64.2c-0.2-1.1-0.6-2.2-1.2-3c-0.6-0.8-1.5-1.5-2.5-2c-1-0.4-2.2-0.7-3.5-0.6c-1.3,0-2.7,0.4-3.9,0.9 c-1.3,0.5-2.5,1.3-3.6,2.2c-1.1,0.9-2.1,2-2.9,3.1c-0.8,1.2-1.5,2.4-1.8,3.8c-0.4,1.3-0.5,2.6-0.4,3.7c0,0.2,0.1,0.3,0.1,0.5 c0.6-0.1,1.1-0.2,1.7-0.3c-0.1-0.3-0.1-0.5-0.2-0.8c-0.1-1,0-2,0.3-3.1c0.3-1.1,0.9-2.2,1.5-3.2c0.7-1,1.5-1.9,2.4-2.6 c0.9-0.8,2-1.4,3-1.8c1.1-0.4,2.2-0.7,3.3-0.7c1.1,0,2.1,0.2,2.9,0.5c0.8,0.4,1.5,0.9,2.1,1.7c0.5,0.7,0.9,1.6,1,2.5 c0.1,1,0.1,2-0.3,3.2c-0.3,1.1-0.8,2.2-1.5,3.2c-0.7,1-1.5,1.9-2.5,2.7c-0.6,0.5-1.3,1-2,1.3c0.4,0.3,0.8,0.6,1.2,1 c0.6-0.4,1.2-0.7,1.7-1.2c1.1-0.9,2.2-2,3-3.2c0.8-1.2,1.5-2.5,1.8-3.8C195.3,66.7,195.4,65.4,195.2,64.2z"/><path class="st9" d="M194.7,10.7c-0.2,0-0.4,0-0.6-0.1c-3.6-2-7.6-3.3-11.7-3.8c-0.6-0.1-1.1-0.6-1-1.3c0.1-0.6,0.6-1.1,1.3-1 c4.4,0.5,8.7,1.9,12.6,4.1c0.6,0.3,0.7,1,0.4,1.6C195.5,10.5,195.1,10.7,194.7,10.7z"/><path class="st9" d="M152.2,19.7c-0.2,0-0.5-0.1-0.7-0.2c-0.5-0.4-0.6-1.1-0.2-1.6c4.9-6.5,11.9-11,19.8-12.8 c0.6-0.1,1.2,0.2,1.4,0.9c0.1,0.6-0.2,1.2-0.9,1.4c-7.3,1.6-13.9,5.9-18.5,11.9C152.9,19.5,152.6,19.7,152.2,19.7z"/><ellipse class="st9" cx="209.9" cy="15.6" rx="14.8" ry="15.6"/><ellipse class="st9" cx="246.3" cy="29.8" rx="4.2" ry="4.4"/><ellipse class="st9" cx="265.2" cy="12.9" rx="2.4" ry="2.5"/><ellipse class="st9" cx="177" cy="5.7" rx="4.2" ry="4.4"/><ellipse class="st9" cx="148.4" cy="24.9" rx="5.9" ry="6.1"/><path class="st15" d="M218.6,14.8c0-0.2-0.1-0.3-0.2-0.3c-0.5-0.2-1-0.4-1.4-0.6c-0.1,0-0.2-0.2-0.3-0.3c-0.2-0.5-0.4-0.9-0.5-1.4 c0-0.1,0-0.2,0-0.3c0.2-0.5,0.5-1,0.8-1.6c0-0.1,0-0.2,0-0.3c-0.4-0.4-0.8-0.8-1.2-1.3c-0.1-0.1-0.2-0.1-0.3-0.1 c-0.5,0.2-1,0.5-1.5,0.7c-0.1,0-0.2,0-0.3,0c-0.5-0.2-1-0.4-1.4-0.6c-0.1,0-0.2-0.2-0.3-0.3c-0.2-0.5-0.4-1-0.5-1.5 c-0.1-0.2-0.1-0.2-0.3-0.2c-0.6,0-1.1,0-1.7,0c-0.2,0-0.3,0.1-0.3,0.2c-0.2,0.5-0.4,1-0.5,1.4c-0.1,0.2-0.1,0.2-0.3,0.3 c-0.5,0.2-0.9,0.3-1.4,0.5c-0.2,0.1-0.3,0.1-0.4,0c-0.5-0.3-1-0.5-1.5-0.7c-0.1-0.1-0.2-0.1-0.4,0.1c-0.4,0.4-0.8,0.8-1.2,1.2 c-0.1,0.1-0.1,0.2-0.1,0.4c0.2,0.5,0.5,1,0.7,1.5c0,0.1,0,0.3,0,0.4c-0.2,0.5-0.4,0.9-0.7,1.4c-0.1,0.1-0.2,0.2-0.3,0.3 c-0.5,0.2-1.1,0.4-1.6,0.5c-0.2,0-0.2,0.1-0.2,0.3c0,0.6,0,1.1,0,1.7c0,0.2,0,0.2,0.2,0.3c0.5,0.2,1.1,0.4,1.6,0.6 c0.1,0,0.2,0.2,0.3,0.3c0.2,0.5,0.4,0.9,0.6,1.4c0.1,0.2,0.1,0.3,0,0.5c-0.2,0.5-0.5,0.9-0.7,1.4c-0.1,0.2-0.1,0.3,0.1,0.4 c0.4,0.4,0.8,0.8,1.2,1.2c0.1,0.1,0.2,0.1,0.4,0.1c0.5-0.2,1-0.4,1.5-0.7c0.2-0.1,0.3-0.1,0.4,0c0.5,0.2,0.9,0.4,1.4,0.7 c0.1,0,0.2,0.2,0.2,0.3c0.2,0.5,0.4,1.1,0.5,1.6c0,0.2,0.1,0.2,0.3,0.2c0.6,0,1.1,0,1.7,0c0.2,0,0.3-0.1,0.3-0.2 c0.2-0.5,0.4-1.1,0.6-1.6c0-0.1,0.2-0.2,0.3-0.3c0.5-0.2,1-0.4,1.5-0.6c0.1,0,0.2,0,0.3,0c0.6,0.3,1.1,0.5,1.7,0.8 c0.5-0.5,0.9-0.9,1.4-1.4c0.1-0.1,0.1-0.2,0-0.3c-0.2-0.5-0.5-1-0.7-1.5c0-0.1-0.1-0.2,0-0.3c0.2-0.5,0.4-1,0.6-1.5 c0-0.1,0.2-0.2,0.3-0.3c0.5-0.2,1-0.4,1.5-0.5c0.2-0.1,0.2-0.1,0.2-0.3C218.6,15.9,218.6,15.3,218.6,14.8z M209.8,18.9 c-1.9,0-3.4-1.6-3.3-3.4c0-1.9,1.6-3.4,3.4-3.3c1.9,0,3.4,1.6,3.3,3.4C213.2,17.5,211.7,19,209.8,18.9z"/></svg>