<svg id="Layer_1" xmlns="http://www.w3.org/2000/svg" xmlns:xlink="http://www.w3.org/1999/xlink" viewBox="0 0 260.5 225.4"><style>.st15{fill:#fff}.st25{fill:#f4af9f}.st27{opacity:.72}.st38{fill:#f2907e}.st53{fill:#ed6e6f}.st77{fill:#c8def4}.st82,.st83{fill:#7d89c3}.st83{opacity:.5}.st84{fill:#fdd69a}</style><path class="st77" d="M250.3,91.5c-1.6,5.5-7.6,10-13.3,10h-53.3c-5.7,0-9.1-4.5-7.5-10l9.8-33.7c1.6-5.5,7.6-10,13.3-10h53.3 c5.7,0,9.1,4.5,7.5,10L250.3,91.5z"/><path d="M218.1,89.3c-12.7,2.4-16.4,0.2-22.2-11c-5.3-10.1-17.8-6.3-28.1-6.6c-12.9-0.3-24.9-4.2-36.9-9.9 c-10.7-5.1-20.9-10.1-32.9-11.6c-12.7-1.5-25.9,2.4-36.2,10.1c-13.6,10.3-18.9,27.4-23.7,43c-5.6,18.2-12.4,34.1-24.4,49.2 c-11.8,14.9-22.1,31.8-4.2,47.1c10.1,8.6,23.3,11.9,36,14.6c30,6.4,63.2,17.4,93.5,6.5c9.4-3.4,16-10.8,22.1-18.5 c10.7-13.4,15.8-23.2,36.2-31.9c22.6-9.7,41-22.4,44.1-41.6c0.6-3.9,0.9-7.6,0.8-11c0-11.8-5.3-25.7-18.1-28.3 C222.2,89,220.1,89,218.1,89.3z" fill="#e2e5f4"/><path class="st77" d="M166.5 76.3L142.1 76.3 152.1 31.6 176.5 31.6z"/><path class="st77" d="M149.1,33.3c-2.9,0-3.8-1.9-2-4.1l21.6-27.7c1.8-2.3,4-1.9,4.9,0.8l8.7,26c0.9,2.7-0.7,4.9-3.6,4.9H149.1z"/><path class="st77" d="M132.3 67.6L122.9 67.6 126.7 50.4 136.1 50.4z"/><path class="st77" d="M125.6,51c-1.1,0-1.5-0.7-0.8-1.6l8.3-10.7c0.7-0.9,1.5-0.7,1.9,0.3l3.4,10c0.4,1-0.3,1.9-1.4,1.9H125.6z"/><linearGradient id="SVGID_2_" gradientUnits="userSpaceOnUse" x1="227.424" y1="87.889" x2="138.758" y2="222.341"><stop offset="0" stop-color="#fff"/><stop offset="1" stop-color="#383938"/></linearGradient><path d="M242,126c0.1-0.8,0.2-1.5,0.2-2.2c0-0.1,0-0.2,0-0.4c0.1-0.7,0.1-1.4,0.1-2.1 c0-0.1,0-0.2,0-0.4c0-0.7,0-1.4,0-2.1c0-0.1,0-0.2,0-0.3c-0.1-7.4-1.7-13.6-4.4-18.6c-2.9-5.2-7.4-9.2-13.7-10.5 c-2.1-0.5-4.2-0.4-6.3-0.1c-10.1,1.9-14.5,0.9-18.8-5.2l-1.1,0.2l-1.2,2.3c10.1,4.3-18.6,1.5-21.1,11.8 c-2.5,10.3,9.4,18.8,1.4,26.2c-7.9,7.4-5.1,30.7-6.7,41.2c-2.5,16.6-15.4,45.3-46.7,46.7c0,0,1.5,4.6,3.7,9c4.8-0.4,8.6-1,11.8-1.7 h0c1.6-0.4,3-0.8,4.3-1.3c7-3.9,12.4-10,17.4-16.3c0.8-1.1,1.7-2.1,2.4-3.1c9.2-11.8,15-20.8,33.8-28.8c2.1-0.9,4.2-1.8,6.2-2.8 c19.7-9.3,35-21.4,37.9-38.8c0.1-0.8,0.2-1.6,0.3-2.4C242,126.2,242,126.1,242,126z" fill="url(#SVGID_2_)"/><defs><path id="SVGID_45_" d="M218.1,89.3c-12.7,2.4-16.4,0.2-22.2-11c-5.3-10.1-17.8-6.3-28.1-6.6c-12.9-0.3-24.9-4.2-36.9-9.9 c-10.7-5.1-20.9-10.1-32.9-11.6c-12.7-1.5-25.9,2.4-36.2,10.1c-13.6,10.3-18.9,27.4-23.7,43c-5.6,18.2-12.4,34.1-24.4,49.2 c-11.8,14.9-22.1,31.8-4.2,47.1c10.1,8.6,23.3,11.9,36,14.6c30,6.4,63.2,17.4,93.5,6.5c9.4-3.4,16-10.8,22.1-18.5 c10.7-13.4,15.8-23.2,36.2-31.9c22.6-9.7,41-22.4,44.1-41.6c0.6-3.9,0.9-7.6,0.8-11c0-11.8-5.3-25.7-18.1-28.3 C222.2,89,220.1,89,218.1,89.3z"/></defs><clipPath id="SVGID_4_"><use xlink:href="#SVGID_45_" overflow="visible"/></clipPath><g opacity=".5" clip-path="url(#SVGID_4_)"><path d="M209,151.1c-1.6,5.7-7.8,10.3-13.7,10.3h-94.5c-5.9,0-9.4-4.6-7.7-10.3l18.4-63.3 c1.6-5.7,7.8-10.3,13.7-10.3h94.5c5.9,0,9.4,4.6,7.7,10.3L209,151.1z" fill="#b8bbd6"/></g><g opacity=".5"><path class="st82" d="M223.5,21.4c-0.8,2.8-3.9,5.1-6.9,5.1h-20.8c-2.9,0-4.7-2.3-3.9-5.1l3.6-12.5c0.8-2.8,3.9-5.1,6.9-5.1h20.8 c2.9,0,4.7,2.3,3.9,5.1L223.5,21.4z"/><path class="st82" d="M219.8,21.4c-0.4,1.4-2,2.6-3.4,2.6h-18.8c-1.5,0-2.3-1.2-1.9-2.6L199.2,9c0.4-1.4,2-2.6,3.4-2.6h18.8 c1.5,0,2.3,1.2,1.9,2.6L219.8,21.4z"/></g><path class="st77" d="M248.8,36.9c-0.5,1.8-2.5,3.2-4.3,3.2h-17.3c-1.9,0-2.9-1.5-2.4-3.2l3.2-10.9c0.5-1.8,2.5-3.2,4.3-3.2h17.3 c1.9,0,3,1.5,2.4,3.2L248.8,36.9z"/><path class="st82" d="M203.3,139.5c-1.6,5.7-7.8,10.3-13.7,10.3H95.1c-5.9,0-9.4-4.6-7.7-10.3l18.4-63.3 c1.6-5.7,7.8-10.3,13.7-10.3H214c5.9,0,9.4,4.6,7.7,10.3L203.3,139.5z"/><path d="M196.2,136.2c-1.2,4.2-5.9,7.7-10.3,7.7h-83.6c-4.4,0-7-3.5-5.8-7.7L113,79.5c1.2-4.2,5.9-7.7,10.3-7.7h83.6 c4.4,0,7,3.5,5.8,7.7L196.2,136.2z" fill="#8ab5e1"/><path class="st15" d="M154.6,88h-41.7c-0.4,0-0.8-0.4-0.8-0.8c0-0.4,0.4-0.8,0.8-0.8h41.7c0.4,0,0.8,0.4,0.8,0.8 C155.4,87.7,155,88,154.6,88z"/><path class="st15" d="M137.4,92.8h-24.5c-0.4,0-0.6-0.3-0.6-0.6c0-0.4,0.3-0.6,0.6-0.6h24.5c0.4,0,0.6,0.3,0.6,0.6 C138.1,92.5,137.8,92.8,137.4,92.8z"/><path class="st15" d="M151.8,98.1h-39c-0.4,0-0.8-0.4-0.8-0.8c0-0.4,0.4-0.8,0.8-0.8h39c0.4,0,0.8,0.4,0.8,0.8 C152.7,97.7,152.3,98.1,151.8,98.1z"/><path class="st15" d="M142.7,102.9h-32.3c-0.4,0-0.7-0.3-0.7-0.7s0.3-0.7,0.7-0.7h32.3c0.4,0,0.7,0.3,0.7,0.7 S143.1,102.9,142.7,102.9z"/><path class="st15" d="M138.2,108.1h-27.8c-0.4,0-0.7-0.3-0.7-0.7c0-0.4,0.3-0.7,0.7-0.7h27.8c0.4,0,0.7,0.3,0.7,0.7 C138.8,107.7,138.5,108.1,138.2,108.1z"/><path class="st15" d="M195.4,120.2H162c-0.4,0-0.8-0.4-0.8-0.8c0-0.4,0.4-0.8,0.8-0.8h33.4c0.4,0,0.8,0.4,0.8,0.8 C196.2,119.9,195.8,120.2,195.4,120.2z"/><path class="st15" d="M193.9,125.1h-33.4c-0.4,0-0.8-0.4-0.8-0.8c0-0.4,0.4-0.8,0.8-0.8h33.4c0.4,0,0.8,0.4,0.8,0.8 C194.7,124.8,194.3,125.1,193.9,125.1z"/><path class="st15" d="M192.7,130.3h-33.6c-0.4,0-0.8-0.4-0.8-0.8c0-0.4,0.4-0.8,0.8-0.8h33.6c0.4,0,0.8,0.4,0.8,0.8 C193.5,129.9,193.1,130.3,192.7,130.3z"/><path class="st15" d="M207.6,81.6h-94.7c-0.4,0-0.8-0.4-0.8-0.8c0-0.4,0.4-0.8,0.8-0.8h94.7c0.4,0,0.8,0.4,0.8,0.8 C208.4,81.2,208,81.6,207.6,81.6z"/><path class="st15" d="M196.9 111.1L156.1 111.1 163.1 87.2 204 87.2z"/><ellipse transform="rotate(-29.842 174.436 98.844)" class="st83" cx="174.4" cy="98.8" rx="8" ry="6.4"/><ellipse transform="rotate(-29.834 174.436 98.84)" class="st83" cx="174.4" cy="98.8" rx="5.4" ry="4.3"/><ellipse transform="rotate(-29.842 174.428 98.842)" class="st15" cx="174.4" cy="98.8" rx="3.1" ry="2.4"/><path class="st84" d="M127.5 129.7L111.4 129.7 114.8 118 130.9 118z"/><path class="st84" d="M148.5 129.7L132.3 129.7 135.7 118 151.9 118z"/><path class="st25" d="M125.3,80.8c0,0,5,3.6,4.4,13.3c0,0,0.5,3.2,1.6,6.1c1.1,2.9,2.3,11.4-1.1,17.1c0,0-2.5,3.8-14.6,0 c0,0-1.4,10.1-0.2,12.9l-8.5-0.9c0,0,0.9-25.8,1-26.4c0.1-0.6,4-9.3,4-9.3L125.3,80.8z"/><path class="st38" d="M120.1,97.7c5-3.8,6.3-12,6.6-15.5c-0.8-1-1.3-1.4-1.3-1.4l-13.5,12.9c0,0-3.9,8.6-4,9.3 c-0.1,0.6-1,26.4-1,26.4l8.5,0.9c-1.2-2.8,0.2-12.9,0.2-12.9c10.7,3.3,13.9,0.8,14.5,0.1C120.4,117.4,113.8,102.4,120.1,97.7z"/><g class="st27"><linearGradient id="SVGID_6_" gradientUnits="userSpaceOnUse" x1="106.817" y1="105.511" x2="132.418" y2="105.511"><stop offset="0" stop-color="#808181"/><stop offset="1" stop-color="#d6d7d7"/></linearGradient><path d="M125.3,80.8c0,0,5,3.6,4.4,13.3c0,0,0.5,3.2,1.6,6.1c1.1,2.9,2.3,11.4-1.1,17.1 c0,0-2.5,3.8-14.6,0c0,0-1.4,10.1-0.2,12.9l-8.5-0.9c0,0,0.9-25.8,1-26.4c0.1-0.6,4-9.3,4-9.3L125.3,80.8z" fill="url(#SVGID_6_)"/><linearGradient id="SVGID_8_" gradientUnits="userSpaceOnUse" x1="106.817" y1="105.511" x2="132.418" y2="105.511"><stop offset="0" stop-color="#808181"/><stop offset="1" stop-color="#d6d7d7"/></linearGradient><path d="M120.1,97.7c5-3.8,6.3-12,6.6-15.5c-0.8-1-1.3-1.4-1.3-1.4l-13.5,12.9c0,0-3.9,8.6-4,9.3 c-0.1,0.6-1,26.4-1,26.4l8.5,0.9c-1.2-2.8,0.2-12.9,0.2-12.9c10.7,3.3,13.9,0.8,14.5,0.1C120.4,117.4,113.8,102.4,120.1,97.7z" fill="url(#SVGID_8_)"/></g><path class="st25" d="M167.1,123.9c0,0,1.4-0.1,0.4-3.4c-1-3.3-1.5-3.8-0.4-6.1c1.1-2.4,6.4-15.1,6.8-15.9 c0.4-0.7,1.6-0.8,1.3,0.6c-0.4,1.4-1.7,9.7-1,10c0.7,0.3,11.4,1.9,11.9,5.2c0.5,3.3-6,12.4-7.5,13.3L167.1,123.9z"/><path class="st38" d="M176.1,117.9c-7.2-2.4-6-9.8-5.7-11.3c-1.4,3.3-2.8,6.6-3.3,7.7c-1.1,2.4-0.5,2.8,0.4,6.1 c1,3.3-0.4,3.4-0.4,3.4l11.4,3.7c1.2-0.7,5.7-6.8,7.1-10.9C183.8,118.1,180.7,119.4,176.1,117.9z"/><g class="st27"><linearGradient id="SVGID_9_" gradientUnits="userSpaceOnUse" x1="117.728" y1="286.962" x2="137.21" y2="286.962" gradientTransform="rotate(2.807 3711.972 1200.626)"><stop offset="0" stop-color="#808181"/><stop offset="1" stop-color="#d6d7d7"/></linearGradient><path d="M167.1,123.9c0,0,1.4-0.1,0.4-3.4c-1-3.3-1.5-3.8-0.4-6.1c1.1-2.4,6.4-15.1,6.8-15.9 c0.4-0.7,1.6-0.8,1.3,0.6c-0.4,1.4-1.7,9.7-1,10c0.7,0.3,11.4,1.9,11.9,5.2c0.5,3.3-6,12.4-7.5,13.3L167.1,123.9z" fill="url(#SVGID_9_)"/><linearGradient id="SVGID_10_" gradientUnits="userSpaceOnUse" x1="117.728" y1="291.413" x2="137.21" y2="291.413" gradientTransform="rotate(2.807 3711.972 1200.626)"><stop offset="0" stop-color="#808181"/><stop offset="1" stop-color="#d6d7d7"/></linearGradient><path d="M176.1,117.9c-7.2-2.4-6-9.8-5.7-11.3c-1.4,3.3-2.8,6.6-3.3,7.7c-1.1,2.4-0.5,2.8,0.4,6.1 c1,3.3-0.4,3.4-0.4,3.4l11.4,3.7c1.2-0.7,5.7-6.8,7.1-10.9C183.8,118.1,180.7,119.4,176.1,117.9z" fill="url(#SVGID_10_)"/></g><path d="M167.6,122.8l-17.1,31.4c-13.4-21.4-37.5-25.3-42.9-25.9h0c-0.2,0.4-0.5,0.8-0.8,1.1c0,0-0.1,0.1-0.1,0.1 c-0.2,0.3-0.5,0.6-0.8,0.9c-0.1,0.1-0.1,0.1-0.2,0.2c-0.2,0.3-0.5,0.5-0.8,0.8c-0.1,0.1-0.1,0.1-0.2,0.2c-0.3,0.3-0.7,0.6-1,0.9 c-10.4,8.5-27.1,22.3-27.3,39.4c-0.2,15.5,9.4,43.6,42.6,49.9c0.1,0,0.2,0,0.3,0.1c1,0,2.1-0.1,3.2-0.1c12-0.5,18.9-2,23.9-4.5 c-24.5-0.7-33.7-31.8-24.7-32.8c9.3-1,12-10.7,12-10.7s8,9.5,20.3,9.1c12.2-0.4,26-56.7,26-56.7L167.6,122.8z" fill="#ef7c7e"/><path class="st53" d="M154.3,157.9l16.5-34.2l-3.1-0.9l-17.1,31.4c0,0,4.2,6,5.1,8.2L154.3,157.9z"/><ellipse transform="rotate(-30.052 191.075 75.882)" cx="191.1" cy="75.9" rx="2" ry="1.6" fill="#f39c9e"/><ellipse transform="rotate(-30.098 197.846 75.95)" class="st84" cx="197.9" cy="76" rx="2" ry="1.6"/><ellipse transform="rotate(-30.098 204.636 76.023)" cx="204.7" cy="76" rx="2" ry="1.6" fill="#b0d391"/><path class="st53" d="M121.6,184.7c0.7-0.1,1.4-0.2,2.1-0.4c6.1-1.7,8.8-7.5,9.6-9.6c0,0,0,0,0,0c0-0.1,0.1-0.1,0.1-0.2 c0,0,0,0,0,0c0-0.1,0-0.1,0.1-0.2c0,0,0,0,0,0c0,0,0-0.1,0-0.1c0,0,0,0,0,0c0,0,0-0.1,0-0.1c0,0,0,0,0,0c0,0,0-0.1,0-0.1 l-12.3-11.4l7.3,10.7c0,0-3.4,11.3-17.1,8.9c0,0,3,1.8,5.3,2.5c-0.3,1.2-1.3,7.2,4.1,15.7l0,0C117.3,192.7,117.3,185.2,121.6,184.7 z"/><path d="M208.9,176c-2.7-0.8-5.7,0.5-8.2,1.4c-2.7,0.9-5.3,2.1-7.8,3.4c-5.1,2.6-9.7,6-13.8,10 c-2.4,2.4-4.7,4.9-6.7,7.7c-1.8,2.5-4.1,5.5-2.1,8.7c1.1,1.7,3.4,2.3,5.4,2.1c6-0.8,8.9-7.2,12.6-11.2c4.1-4.4,8.8-8.1,14.1-11 c2.1-1.2,4.3-2.2,6.6-3.1c1.8-0.7,3.4-2,3.3-4.1C212.1,177.9,210.6,176.5,208.9,176z" fill="#e7e9f7"/><path class="st15" d="M32.5,165.1c-2.2,25.5,9.5,60.6,90,56.8c-27.2-11.8-36.4-32.2-36.1-48.4c0.3-17.1,7-32.4,17.5-40.9 c10.4-8.5,9.2-28.5,9.2-28.5s-4.1-3.3-2.2-6.5c1.8-3.3,6.7-0.3,6.7-0.3c0.6-0.3,1.3-0.8,1.8-1.3c0.6-0.5,1.1-1,1.6-1.6 c1-1.4,1.7-3,2.4-4.6c0.7-1.6,1.2-3.3,1.6-5.1c0.4-1.6,0.7-3.2,0.9-4.8c0.3-2,0.3-4.1,0.3-6.1c0-0.3,0-0.7,0-1 c-0.4-0.1-0.9-0.1-1.4-0.1c-0.7-0.1-1.4-0.1-2-0.2c-0.3,0-0.7,0-1.1-0.1c-3.1-0.2-6.3-0.2-9.4-0.2c-3.1,0.1-6.6,0.3-9.8,0.7 c0,0,0,0,0.1,0c-8.3,0.9-18.1,3.7-22.8,11.2c-3.6,5.8-1.3,13.2-3.4,19.5c-1.9,5.7-5.4,11.2-10.5,14.7 C60.2,122.1,34.5,141.6,32.5,165.1z"/></svg>