 <svg
      viewBox="0 0 2048 1375"
      width={728}
      height={489}
      xmlns="http://www.w3.org/2000/svg"
      {...props}
    >
      <path
        d="M719 484l8 1 12 6 8 7 11 15 9 19 6 18 5 17v2l12 2 17 5 20 9 16 10 10 8 13 11 11 13 9 13 8 14 7 16 5 16 3 14 2 13 1 29-1 132-1 1h-64V743l-1-24-4-20-3-7-11-20-12-13-5-4-5-5-10-6-17-7-9-1-2-2h-18l-5-1-15 3-13 5-11 6-8 6-20 20-8 16-4 9-2 7-1 10v26l2 2 1 10 4 9 6 11 8 11 11 11 15 10 12 6 11 3 12 2 5 1h14l21-5 13-8 5 1 8 13 9 13 8 11 4 7 3 6v5l-8 5-18 8-17 5-24 4h-30l-23-4-16-5-16-7-16-9-16-12-12-11-9-10-14-21-10-21-6-19-3-15-1-22 1-23 4-20 5-15 10-21 10-16 10-11 7-8 13-12 13-9 11-7-1-5-9-10-8-6-8-3-7 11-10 5h-8l-10-4-8-8-4-8-1-4v-8l4-10 5-5 6-3h16l12 4 11 6 11 8 8 8 5 4 7 8 8 10 9-1 17-4 20-2h14l-5-19-7-14-3-4-6 1-6 4-10 2-10-4-8-9-4-10v-8l4-12 7-7zM1097 567h20l22 3 18 5 21 9 18 11 14 12 8 7 11 14 7 10 6 10 7 16 5 15 4 20 1 10v165l-1 1h-59l-4-1-1-2-1-163-3-15-6-15-7-12-12-13-11-8-16-8-13-4-5-1h-25l-15 4-12 5-11 7-10 9-9 10-8 14-5 14-3 19-1 160-55 1-8-1-2-4V725l1-21 3-19 6-20 8-18 10-16 7-9 9-10 9-9 12-9 13-8 21-10 21-6zM1297 465h64l1 1v107h89l3 1 1 2v60l-1 1-91 1v98l4 18 6 14 7 11 9 11 10 8 16 10 18 6 19 4 3 3v60l-1 1-17-1-19-3-20-6-17-8-15-9-12-9-13-12-11-12-12-18-8-16-6-16-4-15-3-20z"
        fill="#8600EB"
      />
      <path
        d="M445 626h62l19 1 12 5 9 8 6 10 2 10v11l-2 10-6 11-9 8-9 4-9 2h-12l-10-3-8-6-8-9-4-8-2-8v-13l3-6 2-1h10l4 1v18l4 8 6 5 8 3h7l9-4 5-5 3-8v-8l-3-8-7-6-11-3h-25l-49-1v-16zM507 464h18l8 3 8 5 7 7 5 10 2 9v10l-2 9-4 8-8 9-8 5-9 3h-17l-13-5-8-7-6-10-3-8-1-13 3-12 6-10 9-8 9-4zm4 17l-8 4-7 7-3 7v7l4 9 8 7 8 3 9-1 9-5 4-5 3-9-1-9-5-8-5-4-7-3z"
        fill="#FEFEFF"
      />
      <path
        d="M772 675h18l11 6 9 8 6 10v25l-5 8-10 10-6 3-6 2-1 1h-14l-12-5-10-9-4-4-3-8v-14l3 1 4 7 8 5 4 1 10-5 4-4 2-5-1-7-5-8-5-3h-11l-8 5-3-1 11-12 8-5z"
        fill="#8600EB"
      />
      <path
        d="M504 714h13l15 3 10 5 8 9 4 8 1 6v12l-2 9-6 10-7 6-9 4-5 1h-47l-1-3v-14l2-1 44-1 7-3 4-4 2-6v-7l-4-8-5-4-2-1-47-1-1-1v-14l1-2 4-1zM479 795h15v13l36-1 5-3 4-9h15v8l-7 14-7 6-8 3-12 1h-63l-1-1v-17l20-1 2-12zM482 838l5 1 7 7-1 11h8l9-6 11-9 9-4h8l8 4 7 8 2 6v10l-3 10-3 4-5-1-7-6-1-12-1-3-7 2-14 11-9 6-5 2h-8l-7-4-6-7-3-11v-7l4-9zM480 598h73l1 1v16l-8 1h-67l-1-1v-12zM452 595l6 1 5 4 2 4v7l-4 6-1 1h-11l-6-5-1-2v-9l4-5zM767 694l5 3 2 2v5l-4 4-5-1-4-5 3-5z"
        fill="#FEFEFF"
      />
    </svg>